<svg width="129" height="128" viewBox="0 0 129 128" fill="none" xmlns="http://www.w3.org/2000/svg">
<path d="M112.362 31.9684C111.694 29.9669 109.53 28.8858 107.528 29.5537C105.527 30.2216 104.446 32.3856 105.114 34.3871L112.362 31.9684ZM96.9846 18.4831C98.7823 19.5882 101.135 19.0268 102.24 17.2293C103.345 15.4318 102.784 13.0788 100.986 11.9738L96.9846 18.4831ZM56.7341 114.821L56.6686 118.641H56.7341V114.821ZM77.1107 114.821V118.642L77.1764 118.641L77.1107 114.821ZM52.5838 16.7856H81.2614V9.14453H52.5838V16.7856ZM28.7313 34.3871L28.9137 33.8402L21.6656 31.4216L21.4831 31.9684L28.7313 34.3871ZM100.034 41.4375H33.8112V49.0786H100.034V41.4375ZM30.031 45.8115L37.668 97.9749L45.2285 96.8679L37.5914 44.7046L30.031 45.8115ZM96.1767 97.9749L103.814 45.8115L96.2536 44.7046L88.6166 96.8679L96.1767 97.9749ZM88.6166 96.8679C87.9936 101.121 87.5714 103.956 86.9881 106.058C86.4333 108.056 85.8521 108.915 85.2041 109.475L90.2004 115.256C92.4219 113.337 93.5798 110.879 94.3505 108.102C95.0927 105.428 95.5833 102.031 96.1767 97.9749L88.6166 96.8679ZM21.4831 31.9684C20.7021 34.3091 20.0016 36.3879 19.6461 38.1094C19.2814 39.875 19.1271 41.9161 20.0666 43.9312L26.9919 40.7022C27.0737 40.8776 26.8964 40.7823 27.1292 39.6549C27.3712 38.4834 27.8886 36.9125 28.7313 34.3871L21.4831 31.9684ZM33.8112 41.4375C31.1489 41.4375 29.495 41.4311 28.3072 41.2897C27.164 41.1537 27.1298 40.9554 27.2703 41.0885L22.0152 46.6356C23.6293 48.1647 25.6143 48.6643 27.4045 48.8773C29.15 49.085 31.3436 49.0786 33.8112 49.0786V41.4375ZM20.0666 43.9312C20.5404 44.9472 21.2014 45.8647 22.0152 46.6356L27.2703 41.0885C27.154 40.9784 27.0596 40.8473 26.9919 40.7022L20.0666 43.9312ZM105.114 34.3871C105.956 36.9125 106.474 38.4834 106.716 39.6549C106.949 40.7823 106.771 40.8776 106.853 40.7022L113.778 43.9312C114.718 41.9161 114.564 39.875 114.199 38.1094C113.843 36.3879 113.143 34.3091 112.362 31.9684L105.114 34.3871ZM100.034 49.0786C102.501 49.0786 104.695 49.085 106.441 48.8773C108.231 48.6643 110.215 48.1647 111.83 46.6356L106.575 41.0885C106.715 40.9553 106.681 41.1538 105.538 41.2897C104.35 41.4311 102.696 41.4375 100.034 41.4375V49.0786ZM106.853 40.7022C106.785 40.8473 106.691 40.9784 106.575 41.0885L111.83 46.6356C112.644 45.8647 113.304 44.9471 113.778 43.9312L106.853 40.7022ZM81.2614 16.7856C86.0192 16.7856 89.3049 16.7901 91.8692 17.0492C94.3536 17.3001 95.815 17.7642 96.9846 18.4831L100.986 11.9738C98.4741 10.4294 95.7544 9.76173 92.6374 9.44682C89.6003 9.14 85.8648 9.14453 81.2614 9.14453V16.7856ZM37.668 97.9749C38.2619 102.031 38.7522 105.428 39.4943 108.102C40.2653 110.879 41.423 113.337 43.6443 115.256L48.6407 109.475C47.9927 108.915 47.4116 108.056 46.8569 106.058C46.2734 103.956 45.8512 101.121 45.2285 96.8679L37.668 97.9749ZM52.5838 9.14453C47.9801 9.14453 44.2445 9.14 41.2077 9.44682C38.0904 9.76173 35.3708 10.4294 32.8586 11.9738L36.8603 18.4831C38.0298 17.7642 39.4916 17.3001 41.9756 17.0492C44.5401 16.7901 47.8258 16.7856 52.5838 16.7856V9.14453ZM28.9137 33.8402C30.4198 29.3269 31.4641 26.2115 32.5216 23.861C33.546 21.584 34.4488 20.3443 35.501 19.4626L30.593 13.6062C28.3328 15.5004 26.8386 17.8688 25.5533 20.726C24.301 23.5096 23.1228 27.0546 21.6656 31.4216L28.9137 33.8402ZM32.8586 11.9738C32.0646 12.4619 31.3074 13.0075 30.593 13.6062L35.501 19.4626C35.9296 19.1034 36.384 18.776 36.8603 18.4831L32.8586 11.9738ZM56.7998 111.001C51.3874 110.908 49.7113 110.401 48.6407 109.475L43.6443 115.256C47.0752 118.222 51.5369 118.553 56.6686 118.641L56.7998 111.001ZM77.1764 118.641C82.3082 118.553 86.7695 118.222 90.2004 115.256L85.2041 109.475C84.1339 110.401 82.4574 110.908 77.045 111.001L77.1764 118.641ZM56.7341 118.641L77.1107 118.642V111H56.7341V118.641Z" fill="#729900"/>
<path d="M38.9045 63.9053H66.9218M94.939 63.9053H87.2979" stroke="#729900" stroke-width="7.67802" stroke-linecap="round"/>
<path d="M41.4519 89.376H92.3923" stroke="#729900" stroke-width="7.67802" stroke-linecap="round"/>
</svg>
