<svg width="500" height="372" viewBox="0 0 500 372" fill="none" xmlns="http://www.w3.org/2000/svg">
<g clip-path="url(#clip0_72_3108)">
<path d="M500 299.4H0V299.65H500V299.4Z" fill="#EBEBEB"/>
<path d="M449.9 315.49H416.78V315.74H449.9V315.49Z" fill="#EBEBEB"/>
<path d="M331.22 318.21H322.53V318.46H331.22V318.21Z" fill="#EBEBEB"/>
<path d="M415.78 306.21H396.59V306.46H415.78V306.21Z" fill="#EBEBEB"/>
<path d="M95.65 307.89H52.46V308.14H95.65V307.89Z" fill="#EBEBEB"/>
<path d="M110.89 307.89H104.56V308.14H110.89V307.89Z" fill="#EBEBEB"/>
<path d="M225.15 312.11H131.47V312.36H225.15V312.11Z" fill="#EBEBEB"/>
<path d="M237 254.8H43.91C42.3973 254.797 40.9475 254.195 39.8788 253.124C38.8102 252.053 38.21 250.603 38.21 249.09V-22.34C38.2231 -23.844 38.8292 -25.282 39.8964 -26.3418C40.9637 -27.4015 42.4059 -27.9974 43.91 -28H237C238.514 -28 239.967 -27.3984 241.038 -26.3276C242.108 -25.2567 242.71 -23.8044 242.71 -22.29V249.09C242.71 250.604 242.108 252.057 241.038 253.128C239.967 254.198 238.514 254.8 237 254.8ZM43.91 -27.8C42.4636 -27.7974 41.0774 -27.2209 40.0556 -26.1973C39.0338 -25.1736 38.46 -23.7864 38.46 -22.34V249.09C38.46 250.536 39.0338 251.924 40.0556 252.947C41.0774 253.971 42.4636 254.547 43.91 254.55H237C238.447 254.547 239.834 253.971 240.858 252.948C241.881 251.924 242.457 250.537 242.46 249.09V-22.34C242.457 -23.7873 241.881 -25.1745 240.858 -26.1979C239.834 -27.2213 238.447 -27.7974 237 -27.8H43.91Z" fill="#EBEBEB"/>
<path d="M453.31 254.8H260.21C258.696 254.797 257.246 254.195 256.175 253.125C255.105 252.054 254.503 250.604 254.5 249.09V-22.34C254.516 -23.8449 255.124 -25.2829 256.193 -26.3424C257.262 -27.4019 258.705 -27.9975 260.21 -28H453.31C454.812 -27.9948 456.252 -27.3978 457.317 -26.3383C458.382 -25.2788 458.987 -23.8422 459 -22.34V249.09C459 250.601 458.401 252.05 457.335 253.121C456.268 254.191 454.821 254.795 453.31 254.8ZM260.21 -27.8C258.763 -27.7974 257.375 -27.2213 256.352 -26.1979C255.329 -25.1745 254.753 -23.7873 254.75 -22.34V249.09C254.753 250.537 255.329 251.924 256.352 252.948C257.375 253.971 258.763 254.547 260.21 254.55H453.31C454.757 254.547 456.145 253.971 457.168 252.948C458.191 251.924 458.767 250.537 458.77 249.09V-22.34C458.767 -23.7873 458.191 -25.1745 457.168 -26.1979C456.145 -27.2213 454.757 -27.7974 453.31 -27.8H260.21Z" fill="#EBEBEB"/>
<path d="M222.69 100.73H66.1499V298.95H222.69V100.73Z" fill="#F0F0F0"/>
<path d="M217.15 107.96H71.6799V150.35H217.15V107.96Z" fill="#E0E0E0"/>
<path d="M79.9399 114.82H71.6799V150.34H79.9399V114.82Z" fill="#EBEBEB"/>
<path d="M119.9 114.82H111.64V150.34H119.9V114.82Z" fill="#EBEBEB"/>
<path d="M165.26 113.918L157.12 115.321L163.154 150.325L171.294 148.922L165.26 113.918Z" fill="#EBEBEB"/>
<path d="M90.1799 119.5H81.9199V150.34H90.1799V119.5Z" fill="#EBEBEB"/>
<path d="M109.17 119.5H100.91V150.34H109.17V119.5Z" fill="#EBEBEB"/>
<path d="M157.11 119.5H148.85V150.34H157.11V119.5Z" fill="#EBEBEB"/>
<path d="M130.752 118.437L122.688 120.229L129.379 150.334L137.442 148.542L130.752 118.437Z" fill="#EBEBEB"/>
<path d="M97.33 113.05H93.2V150.34H97.33V113.05Z" fill="#EBEBEB"/>
<path d="M146.48 113.05H142.35V150.34H146.48V113.05Z" fill="#EBEBEB"/>
<path d="M71.6799 199.44L217.15 199.44V157.05L71.6799 157.05V199.44Z" fill="#E0E0E0"/>
<path d="M208.89 199.44H217.15V163.92H208.89V199.44Z" fill="#EBEBEB"/>
<path d="M168.93 199.44H177.19V163.92H168.93V199.44Z" fill="#EBEBEB"/>
<path d="M117.538 198.042L125.678 199.445L131.711 164.441L123.571 163.038L117.538 198.042Z" fill="#EBEBEB"/>
<path d="M198.64 199.44H206.9V168.6H198.64V199.44Z" fill="#EBEBEB"/>
<path d="M179.66 199.44H187.92V168.6H179.66V199.44Z" fill="#EBEBEB"/>
<path d="M131.71 199.44H139.97V168.6H131.71V199.44Z" fill="#EBEBEB"/>
<path d="M151.399 197.641L159.463 199.433L166.153 169.327L158.09 167.535L151.399 197.641Z" fill="#EBEBEB"/>
<path d="M191.5 199.44H195.63V162.15H191.5V199.44Z" fill="#EBEBEB"/>
<path d="M142.35 199.44H146.48V162.15H142.35V199.44Z" fill="#EBEBEB"/>
<path d="M79.9399 163.92H71.6799V199.44H79.9399V163.92Z" fill="#EBEBEB"/>
<path d="M90.1799 168.6H81.9199V199.44H90.1799V168.6Z" fill="#EBEBEB"/>
<path d="M109.17 168.6H100.91V199.44H109.17V168.6Z" fill="#EBEBEB"/>
<path d="M97.33 162.15H93.2V199.44H97.33V162.15Z" fill="#EBEBEB"/>
<path d="M217.15 206.15H71.6799V248.54H217.15V206.15Z" fill="#E0E0E0"/>
<path d="M163.43 213.01H155.17V248.53H163.43V213.01Z" fill="#EBEBEB"/>
<path d="M208.798 212.115L200.658 213.518L206.692 248.522L214.832 247.119L208.798 212.115Z" fill="#EBEBEB"/>
<path d="M133.71 217.7H125.45V248.54H133.71V217.7Z" fill="#EBEBEB"/>
<path d="M152.71 217.7H144.45V248.54H152.71V217.7Z" fill="#EBEBEB"/>
<path d="M200.65 217.7H192.39V248.54H200.65V217.7Z" fill="#EBEBEB"/>
<path d="M174.299 216.632L166.236 218.424L172.927 248.529L180.99 246.737L174.299 216.632Z" fill="#EBEBEB"/>
<path d="M140.86 211.25H136.73V248.54H140.86V211.25Z" fill="#EBEBEB"/>
<path d="M190.01 211.25H185.88V248.54H190.01V211.25Z" fill="#EBEBEB"/>
<path d="M113.73 212.124L105.59 213.527L111.623 248.531L119.763 247.128L113.73 212.124Z" fill="#EBEBEB"/>
<path d="M105.58 217.7H97.3201V248.54H105.58V217.7Z" fill="#EBEBEB"/>
<path d="M79.2234 216.638L71.1602 218.43L77.8509 248.535L85.9142 246.743L79.2234 216.638Z" fill="#EBEBEB"/>
<path d="M94.9401 211.25H90.8101V248.54H94.9401V211.25Z" fill="#EBEBEB"/>
<path d="M305.28 180.63H393.5C395.779 180.63 398.035 181.08 400.14 181.953C402.244 182.827 404.156 184.107 405.765 185.72C407.374 187.334 408.649 189.249 409.516 191.356C410.383 193.464 410.827 195.721 410.82 198V266.88H288V198C287.989 193.405 289.804 188.995 293.044 185.738C296.284 182.48 300.686 180.643 305.28 180.63Z" fill="#E6E6E6"/>
<path d="M261.88 231.69H277.66C279.017 231.685 280.361 231.948 281.616 232.463C282.871 232.979 284.012 233.738 284.973 234.696C285.934 235.654 286.696 236.793 287.215 238.046C287.735 239.299 288.001 240.643 288 242V299H251.58V242C251.579 240.647 251.844 239.306 252.361 238.055C252.878 236.805 253.637 235.668 254.593 234.71C255.55 233.753 256.686 232.993 257.936 232.475C259.186 231.957 260.527 231.69 261.88 231.69Z" fill="#E0E0E0"/>
<path d="M261.88 231.69H262.21C263.564 231.69 264.904 231.957 266.154 232.475C267.404 232.993 268.54 233.753 269.497 234.71C270.453 235.668 271.212 236.804 271.729 238.055C272.246 239.306 272.511 240.646 272.51 242V299H251.58V242C251.579 240.646 251.844 239.306 252.361 238.055C252.878 236.804 253.637 235.668 254.593 234.71C255.55 233.753 256.686 232.993 257.936 232.475C259.186 231.957 260.527 231.69 261.88 231.69Z" fill="#EBEBEB"/>
<path d="M397.97 272.78H276.91V298.95H397.97V272.78Z" fill="#E6E6E6"/>
<path d="M393.49 248.85H276.74C270.958 248.85 266.27 253.538 266.27 259.32V265.83C266.27 271.612 270.958 276.3 276.74 276.3H393.49C399.272 276.3 403.96 271.612 403.96 265.83V259.32C403.96 253.538 399.272 248.85 393.49 248.85Z" fill="#F5F5F5"/>
<path d="M393.29 248.85H378.82C373.038 248.85 368.35 253.538 368.35 259.32V265.83C368.35 271.612 373.038 276.3 378.82 276.3H393.29C399.073 276.3 403.76 271.612 403.76 265.83V259.32C403.76 253.538 399.073 248.85 393.29 248.85Z" fill="#E0E0E0"/>
<path d="M394.86 231.69H410.65C412.003 231.69 413.343 231.957 414.593 232.475C415.842 232.993 416.978 233.753 417.933 234.711C418.889 235.669 419.647 236.805 420.163 238.056C420.678 239.307 420.943 240.647 420.94 242V299H384.57V242C384.567 240.647 384.832 239.307 385.348 238.056C385.864 236.805 386.621 235.669 387.577 234.711C388.533 233.753 389.668 232.993 390.918 232.475C392.167 231.957 393.507 231.69 394.86 231.69Z" fill="#E0E0E0"/>
<path d="M394.86 231.69H395.2C396.553 231.69 397.893 231.957 399.143 232.475C400.392 232.993 401.528 233.753 402.483 234.711C403.439 235.669 404.197 236.805 404.713 238.056C405.228 239.307 405.493 240.647 405.49 242V299H384.57V242C384.567 240.647 384.832 239.307 385.348 238.056C385.864 236.805 386.621 235.669 387.577 234.711C388.533 233.753 389.668 232.993 390.918 232.475C392.167 231.957 393.507 231.69 394.86 231.69Z" fill="#F0F0F0"/>
<path d="M150.256 76.6337C163.094 74.5498 171.812 62.4529 169.728 49.6146C167.644 36.7764 155.547 28.0583 142.709 30.1422C129.871 32.2262 121.153 44.323 123.237 57.1613C125.321 69.9995 137.417 78.7176 150.256 76.6337Z" fill="#E0E0E0"/>
<path d="M149.692 73.1593C160.611 71.3868 168.026 61.0981 166.253 50.1787C164.481 39.2594 154.192 31.8444 143.273 33.6169C132.354 35.3893 124.939 45.678 126.711 56.5974C128.483 67.5167 138.772 74.9317 149.692 73.1593Z" fill="#F0F0F0"/>
<path d="M145.53 67.1401V53.1401L136.26 58.3901" fill="#F0F0F0"/>
<path d="M145.53 68.1399C145.265 68.1399 145.01 68.0345 144.823 67.847C144.635 67.6595 144.53 67.4051 144.53 67.1399V54.8499L136.75 59.2599C136.519 59.3894 136.246 59.4222 135.991 59.351C135.736 59.2797 135.52 59.1103 135.39 58.8799C135.26 58.6503 135.225 58.3784 135.295 58.1236C135.364 57.8688 135.531 57.6518 135.76 57.5199L145.04 52.2699C145.192 52.1844 145.364 52.1402 145.538 52.1416C145.713 52.1431 145.884 52.1901 146.034 52.278C146.185 52.366 146.31 52.4918 146.397 52.643C146.484 52.7942 146.53 52.9655 146.53 53.1399V67.1399C146.53 67.4051 146.425 67.6595 146.237 67.847C146.049 68.0345 145.795 68.1399 145.53 68.1399Z" fill="#E0E0E0"/>
<path d="M428.61 23.6802H277.86V157.45H428.61V23.6802Z" fill="#E6E6E6"/>
<path d="M424.64 27.3501H281.63V153.86H424.64V27.3501Z" fill="#F0F0F0"/>
<path d="M315.19 27.3501L281.63 153.58V94.2701L299.35 27.3501H315.19Z" fill="white"/>
<path d="M327.08 27.3501L293.22 153.86H287.82L321.68 27.3501H327.08Z" fill="white"/>
<path d="M424.64 107.18V127.39L417.79 153.86H412.39L424.64 107.18Z" fill="white"/>
<path d="M331.51 25.0801H329.1V156.69H331.51V25.0801Z" fill="#E6E6E6"/>
<path d="M378.2 25.0801H375.79V156.69H378.2V25.0801Z" fill="#E6E6E6"/>
<path d="M250 344.56C357.082 344.56 443.89 339.492 443.89 333.24C443.89 326.988 357.082 321.92 250 321.92C142.917 321.92 56.1099 326.988 56.1099 333.24C56.1099 339.492 142.917 344.56 250 344.56Z" fill="#F5F5F5"/>
<path d="M401.9 308.23C401.9 308.23 406.65 297.87 401.22 287.65C395.79 277.43 394.22 275.03 397.68 272.93C401.14 270.83 402.73 281.11 402.73 281.11C404.441 276.468 404.616 271.399 403.23 266.65C400.83 259.26 399.32 247.22 402.6 245.93C405.88 244.64 403.23 260.93 406.09 266.51C407.54 262.604 408.478 258.527 408.88 254.38C409.27 248.44 408.66 238.96 411.25 236.53C413.84 234.1 415.51 235.78 412.96 248.88C411.427 256.711 410.581 264.661 410.43 272.64C410.43 272.64 416.06 255.45 419.85 254.95C423.64 254.45 423.63 260.01 420.39 264.84C417.15 269.67 410.9 278.32 409.88 282.77C409.88 282.77 416.07 269.83 421.63 273.77C427.19 277.71 416.79 285.54 412.15 288.37C407.51 291.2 404.29 308.88 404.29 308.88L401.9 308.23Z" fill="#729900"/>
<path opacity="0.2" d="M401.9 308.23C401.9 308.23 406.65 297.87 401.22 287.65C395.79 277.43 394.22 275.03 397.68 272.93C401.14 270.83 402.73 281.11 402.73 281.11C404.441 276.468 404.616 271.399 403.23 266.65C400.83 259.26 399.32 247.22 402.6 245.93C405.88 244.64 403.23 260.93 406.09 266.51C407.54 262.604 408.478 258.527 408.88 254.38C409.27 248.44 408.66 238.96 411.25 236.53C413.84 234.1 415.51 235.78 412.96 248.88C411.427 256.711 410.581 264.661 410.43 272.64C410.43 272.64 416.06 255.45 419.85 254.95C423.64 254.45 423.63 260.01 420.39 264.84C417.15 269.67 410.9 278.32 409.88 282.77C409.88 282.77 416.07 269.83 421.63 273.77C427.19 277.71 416.79 285.54 412.15 288.37C407.51 291.2 404.29 308.88 404.29 308.88L401.9 308.23Z" fill="black"/>
<path d="M405.65 312.48C405.65 312.48 401.02 302.05 406.57 291.91C412.12 281.77 413.72 279.39 410.29 277.25C406.86 275.11 405.14 285.35 405.14 285.35C403.483 280.69 403.367 275.62 404.81 270.89C407.3 263.53 408.96 251.51 405.69 250.17C402.42 248.83 404.88 265.17 401.96 270.7C400.555 266.774 399.664 262.684 399.31 258.53C398.99 252.59 399.72 243.12 397.15 240.65C394.58 238.18 392.9 239.84 395.3 252.98C396.737 260.826 397.487 268.783 397.54 276.76C397.54 276.76 392.11 259.49 388.34 258.94C384.57 258.39 384.5 263.94 387.68 268.82C390.86 273.7 397 282.44 398 286.9C398 286.9 392 273.9 386.36 277.76C380.72 281.62 391.06 289.6 395.66 292.5C400.26 295.4 403.28 313.13 403.28 313.13L405.65 312.48Z" fill="#729900"/>
<path d="M384.31 305.04H422.52L419.43 332.39H387.4L384.31 305.04Z" fill="#263238"/>
<path d="M242.6 328V331.59C242.6 331.696 242.579 331.802 242.538 331.9C242.497 331.998 242.438 332.088 242.363 332.163C242.287 332.238 242.198 332.298 242.1 332.338C242.002 332.379 241.896 332.4 241.79 332.4H140.37C139.505 332.4 138.653 332.188 137.889 331.782C137.125 331.377 136.472 330.79 135.987 330.074C135.503 329.357 135.201 328.533 135.109 327.672C135.017 326.812 135.138 325.943 135.46 325.14L167.6 245.54L219.54 245.89L217.77 256.22L206.31 323.07C206.224 323.577 206.25 324.096 206.385 324.592C206.52 325.088 206.762 325.548 207.093 325.941C207.424 326.334 207.837 326.65 208.303 326.868C208.768 327.085 209.276 327.199 209.79 327.2H241.79C241.896 327.199 242.001 327.218 242.099 327.258C242.197 327.298 242.287 327.356 242.362 327.431C242.437 327.505 242.497 327.594 242.538 327.692C242.579 327.789 242.6 327.894 242.6 328Z" fill="#263238"/>
<path opacity="0.5" d="M242.6 328V331.59C242.6 331.696 242.579 331.802 242.538 331.9C242.497 331.998 242.438 332.088 242.363 332.163C242.287 332.238 242.198 332.298 242.1 332.338C242.002 332.379 241.896 332.4 241.79 332.4H140.37C139.505 332.4 138.653 332.188 137.889 331.782C137.125 331.377 136.472 330.79 135.987 330.074C135.503 329.357 135.201 328.533 135.109 327.672C135.017 326.812 135.138 325.943 135.46 325.14L155.39 275.79L167.6 245.54L219.54 245.89L217.77 256.22L212.77 285.29L206.3 323.07C206.214 323.577 206.24 324.096 206.375 324.592C206.51 325.088 206.752 325.548 207.083 325.941C207.414 326.334 207.827 326.65 208.293 326.868C208.758 327.085 209.266 327.199 209.78 327.2H241.78C241.887 327.197 241.993 327.216 242.092 327.255C242.192 327.294 242.282 327.353 242.359 327.427C242.435 327.502 242.496 327.591 242.537 327.689C242.579 327.788 242.6 327.893 242.6 328Z" fill="white"/>
<path opacity="0.2" d="M209.79 327.19H143.79C143.41 327.189 143.036 327.094 142.7 326.915C142.365 326.735 142.079 326.476 141.868 326.16C141.657 325.844 141.526 325.48 141.488 325.102C141.45 324.724 141.506 324.342 141.65 323.99L169.83 256.21H217.76L206.3 323.06C206.214 323.568 206.24 324.088 206.376 324.584C206.512 325.081 206.754 325.542 207.087 325.935C207.419 326.328 207.833 326.644 208.3 326.861C208.767 327.078 209.275 327.19 209.79 327.19Z" fill="black"/>
<path opacity="0.1" d="M219.54 245.88L217.77 256.21L212.78 285.28L155.39 275.79L167.6 245.53L219.54 245.88Z" fill="black"/>
<path d="M320.53 97.5H80.0799C79.2723 97.5 78.4726 97.6591 77.7264 97.9681C76.9803 98.2772 76.3023 98.7302 75.7312 99.3013C75.1601 99.8724 74.7071 100.55 74.3981 101.296C74.089 102.043 73.9299 102.842 73.9299 103.65V266.44C73.9299 268.071 74.5779 269.635 75.7312 270.789C76.8846 271.942 78.4489 272.59 80.0799 272.59H320.53C322.162 272.59 323.727 271.942 324.882 270.789C326.037 269.636 326.687 268.072 326.69 266.44V103.65C326.687 102.018 326.037 100.454 324.882 99.3007C323.727 98.1476 322.162 97.5 320.53 97.5Z" fill="#263238"/>
<path opacity="0.6" d="M320.53 97.5H80.0799C79.2723 97.5 78.4726 97.6591 77.7264 97.9681C76.9803 98.2772 76.3023 98.7302 75.7312 99.3013C75.1601 99.8724 74.7071 100.55 74.3981 101.296C74.089 102.043 73.9299 102.842 73.9299 103.65V266.44C73.9299 268.071 74.5779 269.635 75.7312 270.789C76.8846 271.942 78.4489 272.59 80.0799 272.59H320.53C322.162 272.59 323.727 271.942 324.882 270.789C326.037 269.636 326.687 268.072 326.69 266.44V103.65C326.687 102.018 326.037 100.454 324.882 99.3007C323.727 98.1476 322.162 97.5 320.53 97.5Z" fill="white"/>
<path opacity="0.2" d="M85.1799 272.58H80.0799C78.4506 272.58 76.8878 271.934 75.7348 270.782C74.5817 269.631 73.9326 268.069 73.9299 266.44V103.66C73.9286 102.852 74.0867 102.051 74.3952 101.303C74.7037 100.556 75.1565 99.877 75.7277 99.3049C76.2989 98.7328 76.9773 98.2789 77.7241 97.9692C78.4709 97.6595 79.2715 97.5001 80.0799 97.5001H85.1799C84.3689 97.4961 83.5652 97.6526 82.8149 97.9605C82.0646 98.2684 81.3827 98.7217 80.8083 99.2942C80.2339 99.8668 79.7784 100.547 79.468 101.297C79.1577 102.046 78.9986 102.849 78.9999 103.66V266.44C78.9999 267.25 79.1601 268.051 79.4711 268.799C79.7822 269.547 80.238 270.225 80.8124 270.796C81.3868 271.367 82.0684 271.818 82.818 272.124C83.5675 272.43 84.3703 272.585 85.1799 272.58Z" fill="black"/>
<path d="M321.15 102.79H84.5798V259.76H321.15V102.79Z" fill="#729900"/>
<path opacity="0.4" d="M199.6 162.54C210.944 162.54 220.14 153.344 220.14 142C220.14 130.656 210.944 121.46 199.6 121.46C188.256 121.46 179.06 130.656 179.06 142C179.06 153.344 188.256 162.54 199.6 162.54Z" fill="white"/>
<path d="M194.7 138.88V137C194.7 136.104 195.056 135.244 195.69 134.61C196.324 133.976 197.184 133.62 198.08 133.62H201.08C201.527 133.615 201.971 133.698 202.386 133.866C202.801 134.033 203.178 134.282 203.496 134.596C203.814 134.91 204.067 135.285 204.239 135.697C204.411 136.11 204.5 136.553 204.5 137V138.92H206.69V137C206.687 135.524 206.1 134.109 205.056 133.065C204.012 132.021 202.596 131.433 201.12 131.43H198.12C196.644 131.433 195.228 132.021 194.184 133.065C193.14 134.109 192.553 135.524 192.55 137V138.92L194.7 138.88Z" fill="white"/>
<path d="M189.75 141.41V151.5C189.75 151.647 189.779 151.793 189.835 151.929C189.892 152.065 189.974 152.188 190.078 152.292C190.182 152.396 190.306 152.479 190.441 152.535C190.577 152.591 190.723 152.62 190.87 152.62H208.33C208.477 152.62 208.623 152.591 208.759 152.535C208.894 152.479 209.018 152.396 209.122 152.292C209.226 152.188 209.308 152.065 209.365 151.929C209.421 151.793 209.45 151.647 209.45 151.5V141.41C209.45 141.113 209.332 140.828 209.122 140.618C208.912 140.408 208.627 140.29 208.33 140.29H190.87C190.723 140.29 190.577 140.319 190.441 140.375C190.306 140.432 190.182 140.514 190.078 140.618C189.974 140.722 189.892 140.846 189.835 140.981C189.779 141.117 189.75 141.263 189.75 141.41ZM200.23 147.12V149.12H199V147.12C198.82 147.02 198.669 146.875 198.56 146.7C198.452 146.525 198.39 146.326 198.38 146.12C198.38 145.789 198.512 145.471 198.746 145.236C198.981 145.002 199.298 144.87 199.63 144.87C199.962 144.87 200.279 145.002 200.514 145.236C200.748 145.471 200.88 145.789 200.88 146.12C200.867 146.329 200.801 146.53 200.687 146.706C200.573 146.881 200.415 147.024 200.23 147.12Z" fill="white"/>
<path d="M149.49 179.55H130.09C128.936 179.55 128 180.486 128 181.64V201.04C128 202.195 128.936 203.13 130.09 203.13H149.49C150.644 203.13 151.58 202.195 151.58 201.04V181.64C151.58 180.486 150.644 179.55 149.49 179.55Z" fill="white"/>
<path d="M179.4 179.52H160C158.846 179.52 157.91 180.456 157.91 181.61V201.01C157.91 202.164 158.846 203.1 160 203.1H179.4C180.554 203.1 181.49 202.164 181.49 201.01V181.61C181.49 180.456 180.554 179.52 179.4 179.52Z" fill="white"/>
<path d="M209.3 179.49H189.9C188.746 179.49 187.81 180.426 187.81 181.58V200.98C187.81 202.135 188.746 203.07 189.9 203.07H209.3C210.454 203.07 211.39 202.135 211.39 200.98V181.58C211.39 180.426 210.454 179.49 209.3 179.49Z" fill="white"/>
<path d="M239.2 179.45H219.8C218.646 179.45 217.71 180.386 217.71 181.54V200.94C217.71 202.094 218.646 203.03 219.8 203.03H239.2C240.354 203.03 241.29 202.094 241.29 200.94V181.54C241.29 180.386 240.354 179.45 239.2 179.45Z" fill="white"/>
<path d="M269.1 179.42H249.7C248.546 179.42 247.61 180.356 247.61 181.51V200.91C247.61 202.064 248.546 203 249.7 203H269.1C270.254 203 271.19 202.064 271.19 200.91V181.51C271.19 180.356 270.254 179.42 269.1 179.42Z" fill="white"/>
<path d="M254.21 191.67C254.21 187.52 256.43 185.16 259.41 185.16C262.39 185.16 264.6 187.52 264.6 191.67C264.6 195.82 262.38 198.18 259.41 198.18C256.44 198.18 254.21 195.82 254.21 191.67ZM262.78 191.67C262.78 188.41 261.39 186.78 259.41 186.78C257.43 186.78 256.03 188.41 256.03 191.67C256.03 194.93 257.41 196.56 259.41 196.56C261.41 196.56 262.78 194.92 262.78 191.67Z" fill="#263238"/>
<path d="M144.53 191.51C144.53 195.85 142.07 198.18 138.53 198.18C137.425 198.219 136.33 197.96 135.36 197.43L136 196C136.743 196.429 137.593 196.638 138.45 196.6C141.03 196.6 142.67 194.98 142.67 191.79V191.34C142.243 191.899 141.685 192.343 141.044 192.632C140.404 192.922 139.701 193.048 139 193C136.47 193 134.65 191.49 134.65 189.15C134.65 186.81 136.65 185.15 139.14 185.15C142.6 185.16 144.53 187.45 144.53 191.51ZM142.29 189.09C142.29 187.78 141.29 186.63 139.29 186.63C138.94 186.588 138.585 186.62 138.248 186.724C137.911 186.829 137.6 187.004 137.336 187.237C137.072 187.47 136.86 187.757 136.714 188.078C136.568 188.399 136.492 188.747 136.49 189.1C136.49 190.6 137.6 191.56 139.39 191.56C141.18 191.56 142.29 190.49 142.29 189.09Z" fill="#263238"/>
<path d="M164.5 191.67C164.5 187.52 166.72 185.16 169.7 185.16C172.68 185.16 174.89 187.52 174.89 191.67C174.89 195.82 172.67 198.18 169.7 198.18C166.73 198.18 164.5 195.82 164.5 191.67ZM173.07 191.67C173.07 188.41 171.69 186.78 169.7 186.78C167.71 186.78 166.32 188.41 166.32 191.67C166.32 194.93 167.7 196.56 169.7 196.56C171.7 196.56 173.07 194.93 173.07 191.67Z" fill="#263238"/>
<path d="M204.2 196.45V198H195.05V196.8L200.23 191.8C201.58 190.49 201.83 189.69 201.83 188.89C201.83 187.58 200.91 186.78 199.12 186.78C198.509 186.746 197.898 186.853 197.334 187.092C196.771 187.331 196.27 187.697 195.87 188.16L194.63 187.09C195.215 186.443 195.936 185.934 196.742 185.6C197.548 185.266 198.419 185.116 199.29 185.16C201.94 185.16 203.65 186.52 203.65 188.7C203.65 189.94 203.29 191.05 201.56 192.7L197.67 196.44L204.2 196.45Z" fill="#263238"/>
<path d="M231 185.3V198H229.2V186.89H226.32V185.3H231Z" fill="#263238"/>
<g opacity="0.6">
<path d="M177.23 173.79V174.24H173.76V169.33H177.12V169.78H174.28V171.53H176.81V172H174.28V173.82L177.23 173.79Z" fill="white"/>
<path d="M181.73 172.1V174.24H181.23V172.15C181.26 171.995 181.252 171.835 181.208 171.683C181.164 171.531 181.085 171.392 180.976 171.277C180.868 171.161 180.734 171.074 180.585 171.02C180.436 170.967 180.277 170.95 180.12 170.97C179.944 170.957 179.767 170.984 179.602 171.046C179.437 171.109 179.288 171.208 179.165 171.334C179.042 171.461 178.949 171.613 178.891 171.78C178.833 171.947 178.812 172.124 178.83 172.3V174.24H178.34V170.55H178.81V171.23C178.96 171 179.169 170.813 179.415 170.69C179.661 170.567 179.936 170.512 180.21 170.53C180.419 170.512 180.628 170.541 180.824 170.614C181.02 170.688 181.197 170.804 181.343 170.954C181.488 171.104 181.599 171.285 181.666 171.483C181.733 171.682 181.755 171.892 181.73 172.1Z" fill="white"/>
<path d="M185 174C184.78 174.178 184.503 174.271 184.22 174.26C184.076 174.272 183.931 174.253 183.795 174.203C183.66 174.154 183.536 174.076 183.433 173.974C183.331 173.872 183.251 173.75 183.201 173.614C183.15 173.479 183.129 173.334 183.14 173.19V171H182.48V170.58H183.14V169.78H183.64V170.58H184.76V171H183.64V173.2C183.64 173.64 183.86 173.87 184.27 173.87C184.469 173.876 184.663 173.813 184.82 173.69L185 174Z" fill="white"/>
<path d="M189 172.55H185.92C185.943 172.912 186.109 173.25 186.381 173.49C186.652 173.73 187.008 173.852 187.37 173.83C187.582 173.837 187.793 173.798 187.988 173.715C188.183 173.632 188.358 173.507 188.5 173.35L188.78 173.67C188.507 173.926 188.168 174.101 187.801 174.174C187.434 174.247 187.054 174.215 186.704 174.083C186.354 173.951 186.048 173.723 185.821 173.425C185.594 173.128 185.455 172.773 185.42 172.4C185.406 172.157 185.443 171.913 185.527 171.685C185.612 171.456 185.743 171.248 185.912 171.072C186.081 170.897 186.284 170.758 186.509 170.665C186.735 170.571 186.976 170.526 187.22 170.53C187.463 170.525 187.704 170.571 187.928 170.665C188.152 170.758 188.354 170.897 188.522 171.073C188.689 171.249 188.818 171.458 188.901 171.686C188.983 171.915 189.017 172.158 189 172.4C189 172.4 189 172.49 189 172.55ZM185.92 172.18H188.53C188.501 171.854 188.352 171.55 188.11 171.329C187.868 171.107 187.553 170.984 187.225 170.984C186.897 170.984 186.582 171.107 186.34 171.329C186.099 171.55 185.949 171.854 185.92 172.18Z" fill="white"/>
<path d="M191.87 170.53V171H191.75C191.574 170.991 191.399 171.021 191.236 171.088C191.073 171.154 190.927 171.257 190.808 171.387C190.69 171.517 190.601 171.672 190.55 171.84C190.498 172.008 190.485 172.186 190.51 172.36V174.24H190V170.55H190.48V171.27C190.609 171.02 190.811 170.815 191.059 170.682C191.308 170.55 191.59 170.497 191.87 170.53Z" fill="white"/>
<path d="M197.75 170.55L195.91 174.68C195.6 175.4 195.21 175.63 194.68 175.63C194.516 175.636 194.353 175.609 194.2 175.551C194.048 175.492 193.908 175.404 193.79 175.29L194.02 174.92C194.105 175.012 194.209 175.084 194.325 175.133C194.44 175.181 194.565 175.204 194.69 175.2C195.02 175.2 195.24 175.05 195.45 174.59L195.61 174.23L194 170.55H194.52L195.9 173.68L197.29 170.55H197.75Z" fill="white"/>
<path d="M198 172.4C197.998 172.028 198.107 171.664 198.312 171.353C198.517 171.043 198.81 170.8 199.154 170.656C199.497 170.512 199.875 170.474 200.241 170.545C200.606 170.617 200.942 170.795 201.206 171.057C201.47 171.32 201.65 171.655 201.723 172.02C201.797 172.385 201.76 172.763 201.618 173.107C201.476 173.451 201.235 173.746 200.926 173.953C200.616 174.16 200.252 174.27 199.88 174.27C199.631 174.28 199.383 174.238 199.152 174.148C198.92 174.058 198.709 173.92 198.533 173.745C198.356 173.569 198.218 173.359 198.126 173.128C198.035 172.897 197.992 172.649 198 172.4ZM201.24 172.4C201.228 172.132 201.138 171.873 200.98 171.655C200.822 171.438 200.603 171.272 200.352 171.177C200.1 171.083 199.826 171.065 199.564 171.125C199.302 171.185 199.064 171.321 198.879 171.516C198.693 171.711 198.57 171.956 198.523 172.22C198.475 172.485 198.507 172.758 198.614 173.004C198.721 173.251 198.898 173.461 199.123 173.608C199.348 173.755 199.611 173.832 199.88 173.83C200.063 173.829 200.244 173.791 200.411 173.717C200.579 173.644 200.73 173.537 200.854 173.403C200.979 173.269 201.075 173.111 201.136 172.938C201.197 172.766 201.222 172.583 201.21 172.4H201.24Z" fill="white"/>
<path d="M206.05 170.55V174.24H205.58V173.56C205.443 173.788 205.247 173.974 205.013 174.099C204.779 174.224 204.515 174.283 204.25 174.27C204.039 174.291 203.825 174.264 203.626 174.192C203.426 174.12 203.245 174.003 203.097 173.852C202.948 173.7 202.835 173.517 202.766 173.316C202.698 173.115 202.675 172.901 202.7 172.69V170.55H203.19V172.64C203.16 172.796 203.168 172.956 203.212 173.107C203.256 173.259 203.335 173.399 203.444 173.514C203.552 173.629 203.686 173.717 203.835 173.77C203.984 173.823 204.143 173.841 204.3 173.82C204.474 173.83 204.648 173.802 204.809 173.738C204.971 173.673 205.116 173.574 205.236 173.447C205.355 173.32 205.445 173.169 205.499 173.004C205.553 172.838 205.571 172.663 205.55 172.49V170.55H206.05Z" fill="white"/>
<path d="M209.3 170.53V171H209.18C209.004 170.991 208.828 171.021 208.666 171.087C208.503 171.154 208.357 171.256 208.238 171.387C208.12 171.517 208.031 171.671 207.98 171.84C207.928 172.008 207.915 172.186 207.94 172.36V174.24H207.44V170.55H207.92V171.27C208.048 171.021 208.248 170.817 208.495 170.685C208.741 170.553 209.022 170.499 209.3 170.53Z" fill="white"/>
<path d="M211.75 171.79C211.732 171.276 211.868 170.769 212.14 170.333C212.413 169.897 212.809 169.552 213.279 169.343C213.748 169.134 214.27 169.07 214.776 169.159C215.282 169.248 215.75 169.487 216.12 169.844C216.49 170.201 216.745 170.66 216.852 171.163C216.959 171.666 216.913 172.189 216.721 172.666C216.529 173.142 216.198 173.551 215.772 173.838C215.346 174.126 214.844 174.28 214.33 174.28C213.995 174.294 213.661 174.239 213.348 174.12C213.035 174.001 212.749 173.819 212.508 173.587C212.267 173.354 212.075 173.075 211.945 172.766C211.815 172.457 211.748 172.125 211.75 171.79ZM216.38 171.79C216.392 171.378 216.28 170.971 216.058 170.624C215.836 170.276 215.515 170.003 215.137 169.839C214.758 169.676 214.339 169.63 213.934 169.708C213.528 169.785 213.156 169.983 212.864 170.274C212.573 170.566 212.375 170.938 212.298 171.344C212.22 171.749 212.266 172.168 212.429 172.547C212.593 172.925 212.866 173.246 213.214 173.468C213.561 173.69 213.968 173.802 214.38 173.79C214.911 173.79 215.419 173.579 215.794 173.204C216.169 172.829 216.38 172.321 216.38 171.79Z" fill="white"/>
<path d="M218.94 169.78H217.22V169.33H221.22V169.78H219.49V174.24H218.97L218.94 169.78Z" fill="white"/>
<path d="M225.85 171C225.85 172 225.09 172.67 223.85 172.67H222.54V174.22H222V169.31H223.83C225.09 169.33 225.85 170 225.85 171ZM225.33 171C225.33 170.21 224.81 169.76 223.83 169.76H222.53V172.21H223.83C224.81 172.23 225.33 171.79 225.33 171Z" fill="white"/>
</g>
<g opacity="0.6">
<path d="M180.15 215.89L180.35 215.5C180.799 215.89 181.376 216.1 181.97 216.09C182.88 216.09 183.28 215.71 183.28 215.22C183.28 213.88 180.28 214.7 180.28 212.89C180.28 212.17 180.84 211.55 182.08 211.55C182.618 211.543 183.146 211.692 183.6 211.98L183.43 212.39C183.026 212.133 182.559 211.994 182.08 211.99C181.19 211.99 180.79 212.39 180.79 212.88C180.79 214.22 183.79 213.41 183.79 215.19C183.79 215.92 183.22 216.53 181.97 216.53C181.304 216.555 180.654 216.326 180.15 215.89Z" fill="white"/>
<path d="M188 214.8H184.92C184.943 215.162 185.109 215.499 185.381 215.739C185.652 215.979 186.008 216.102 186.37 216.08C186.582 216.087 186.793 216.047 186.988 215.964C187.183 215.882 187.358 215.757 187.5 215.6L187.78 215.92C187.604 216.121 187.385 216.28 187.139 216.386C186.893 216.492 186.627 216.541 186.36 216.53C186.106 216.545 185.852 216.508 185.614 216.419C185.376 216.331 185.158 216.194 184.976 216.017C184.793 215.841 184.65 215.628 184.554 215.392C184.458 215.157 184.413 214.904 184.42 214.65C184.408 214.407 184.445 214.164 184.53 213.936C184.616 213.708 184.747 213.501 184.915 213.325C185.084 213.15 185.287 213.011 185.511 212.917C185.736 212.824 185.977 212.777 186.22 212.78C186.464 212.774 186.706 212.819 186.931 212.911C187.156 213.004 187.36 213.143 187.528 213.319C187.697 213.495 187.827 213.705 187.91 213.934C187.993 214.163 188.027 214.407 188.01 214.65C188.01 214.65 188 214.75 188 214.8ZM184.92 214.43H187.53C187.501 214.103 187.352 213.8 187.11 213.578C186.868 213.357 186.553 213.234 186.225 213.234C185.897 213.234 185.582 213.357 185.34 213.578C185.098 213.8 184.949 214.103 184.92 214.43Z" fill="white"/>
<path d="M192.43 214.35V216.49H191.94V214.4C191.968 214.245 191.959 214.086 191.914 213.936C191.869 213.785 191.79 213.648 191.681 213.534C191.573 213.42 191.44 213.333 191.292 213.28C191.144 213.227 190.986 213.21 190.83 213.23C190.654 213.217 190.477 213.244 190.312 213.306C190.147 213.369 189.998 213.468 189.875 213.594C189.752 213.721 189.659 213.873 189.601 214.04C189.543 214.207 189.522 214.384 189.54 214.56V216.49H189V212.81H189.48V213.49C189.629 213.258 189.837 213.069 190.083 212.945C190.33 212.82 190.605 212.763 190.88 212.78C191.091 212.757 191.304 212.783 191.504 212.854C191.703 212.925 191.884 213.04 192.033 213.191C192.182 213.342 192.295 213.525 192.364 213.725C192.433 213.926 192.455 214.139 192.43 214.35Z" fill="white"/>
<path d="M197.16 211.29V216.49H196.68V215.76C196.533 216.004 196.325 216.203 196.075 216.339C195.825 216.474 195.544 216.54 195.26 216.53C194.786 216.495 194.343 216.283 194.02 215.935C193.697 215.587 193.517 215.13 193.517 214.655C193.517 214.18 193.697 213.723 194.02 213.375C194.343 213.027 194.786 212.815 195.26 212.78C195.536 212.77 195.811 212.832 196.056 212.96C196.302 213.088 196.51 213.278 196.66 213.51V211.29H197.16ZM196.67 214.65C196.658 214.382 196.568 214.123 196.41 213.906C196.253 213.689 196.035 213.522 195.784 213.428C195.533 213.333 195.259 213.315 194.998 213.374C194.736 213.433 194.498 213.568 194.312 213.762C194.126 213.956 194.002 214.2 193.953 214.464C193.905 214.728 193.936 215 194.041 215.247C194.146 215.494 194.321 215.705 194.545 215.853C194.769 216.001 195.031 216.08 195.3 216.08C195.486 216.083 195.67 216.048 195.842 215.976C196.013 215.905 196.168 215.798 196.297 215.664C196.426 215.53 196.525 215.371 196.589 215.196C196.653 215.022 196.681 214.836 196.67 214.65Z" fill="white"/>
<path d="M203.16 214.21V216.49H202.68V215.92C202.541 216.125 202.35 216.289 202.127 216.397C201.904 216.504 201.657 216.55 201.41 216.53C200.58 216.53 200.07 216.09 200.07 215.45C200.07 214.81 200.43 214.45 201.49 214.45H202.66V214.23C202.674 214.095 202.658 213.959 202.613 213.831C202.567 213.704 202.494 213.588 202.398 213.492C202.302 213.396 202.186 213.323 202.059 213.277C201.931 213.232 201.795 213.216 201.66 213.23C201.21 213.223 200.773 213.38 200.43 213.67L200.21 213.3C200.632 212.963 201.16 212.786 201.7 212.8C201.893 212.777 202.088 212.798 202.272 212.86C202.457 212.922 202.625 213.024 202.764 213.159C202.904 213.294 203.012 213.458 203.081 213.64C203.149 213.822 203.176 214.017 203.16 214.21ZM202.66 215.38V214.78H201.5C200.79 214.78 200.56 215.06 200.56 215.44C200.56 215.82 200.9 216.13 201.49 216.13C201.739 216.147 201.988 216.083 202.198 215.948C202.409 215.813 202.571 215.614 202.66 215.38Z" fill="white"/>
<path d="M207.93 212.81V216C207.969 216.25 207.949 216.507 207.87 216.748C207.792 216.989 207.657 217.208 207.478 217.388C207.298 217.567 207.079 217.702 206.838 217.78C206.597 217.859 206.34 217.879 206.09 217.84C205.468 217.864 204.858 217.666 204.37 217.28L204.62 216.9C205.03 217.231 205.543 217.408 206.07 217.4C207.01 217.4 207.43 216.98 207.43 216.07V215.6C207.272 215.83 207.057 216.016 206.807 216.141C206.557 216.265 206.279 216.323 206 216.31C205.754 216.328 205.507 216.296 205.275 216.214C205.042 216.133 204.829 216.005 204.649 215.837C204.468 215.669 204.324 215.466 204.226 215.241C204.127 215.015 204.076 214.771 204.076 214.525C204.076 214.279 204.127 214.035 204.226 213.809C204.324 213.583 204.468 213.38 204.649 213.213C204.829 213.045 205.042 212.917 205.275 212.835C205.507 212.754 205.754 212.721 206 212.74C206.284 212.726 206.567 212.786 206.821 212.914C207.075 213.042 207.292 213.234 207.45 213.47V212.77L207.93 212.81ZM207.45 214.56C207.46 214.281 207.386 214.006 207.239 213.769C207.091 213.532 206.876 213.345 206.621 213.231C206.366 213.118 206.083 213.083 205.809 213.131C205.534 213.179 205.28 213.308 205.079 213.502C204.878 213.696 204.74 213.945 204.682 214.218C204.623 214.491 204.648 214.775 204.752 215.033C204.857 215.292 205.036 215.514 205.267 215.67C205.498 215.826 205.771 215.91 206.05 215.91C206.232 215.921 206.415 215.894 206.587 215.831C206.758 215.768 206.915 215.669 207.047 215.543C207.178 215.416 207.282 215.263 207.351 215.094C207.421 214.924 207.454 214.743 207.45 214.56Z" fill="white"/>
<path d="M212.1 214.21V216.49H211.63V215.92C211.49 216.124 211.3 216.288 211.077 216.395C210.854 216.502 210.607 216.549 210.36 216.53C209.52 216.53 209.01 216.09 209.01 215.45C209.01 214.81 209.38 214.45 210.44 214.45H211.6V214.23C211.6 213.6 211.25 213.23 210.6 213.23C210.154 213.225 209.72 213.381 209.38 213.67L209.15 213.3C209.576 212.963 210.107 212.786 210.65 212.8C210.842 212.779 211.037 212.8 211.22 212.863C211.402 212.926 211.569 213.028 211.708 213.163C211.846 213.298 211.953 213.461 212.021 213.642C212.089 213.823 212.116 214.017 212.1 214.21ZM211.6 215.38V214.78H210.45C209.73 214.78 209.5 215.06 209.5 215.44C209.5 215.82 209.85 216.13 210.44 216.13C210.689 216.147 210.936 216.084 211.145 215.949C211.354 215.813 211.514 215.614 211.6 215.38Z" fill="white"/>
<path d="M213.34 211.64C213.354 211.554 213.399 211.475 213.466 211.418C213.532 211.362 213.617 211.331 213.705 211.331C213.792 211.331 213.877 211.362 213.944 211.418C214.011 211.475 214.055 211.554 214.07 211.64C214.055 211.726 214.011 211.805 213.944 211.862C213.877 211.918 213.792 211.949 213.705 211.949C213.617 211.949 213.532 211.918 213.466 211.862C213.399 211.805 213.354 211.726 213.34 211.64ZM213.45 212.81H213.95V216.49H213.45V212.81Z" fill="white"/>
<path d="M218.72 214.35V216.49H218.23V214.4C218.258 214.246 218.249 214.087 218.204 213.936C218.159 213.786 218.079 213.648 217.971 213.534C217.863 213.42 217.73 213.333 217.582 213.28C217.434 213.228 217.276 213.21 217.12 213.23C216.944 213.218 216.767 213.244 216.602 213.307C216.437 213.37 216.288 213.468 216.165 213.595C216.042 213.721 215.948 213.873 215.89 214.04C215.833 214.207 215.812 214.385 215.83 214.56V216.49H215.34V212.81H215.81V213.49C215.959 213.258 216.167 213.07 216.413 212.945C216.659 212.82 216.934 212.763 217.21 212.78C217.418 212.764 217.626 212.794 217.821 212.868C218.015 212.942 218.191 213.058 218.336 213.208C218.48 213.359 218.589 213.539 218.656 213.736C218.722 213.934 218.744 214.143 218.72 214.35Z" fill="white"/>
</g>
<path opacity="0.4" d="M227.46 241.49H171.73C169.528 241.487 167.417 240.611 165.86 239.053C164.304 237.495 163.43 235.382 163.43 233.18C163.43 230.978 164.304 228.866 165.86 227.308C167.417 225.749 169.528 224.873 171.73 224.87H227.46C229.664 224.87 231.778 225.746 233.336 227.304C234.894 228.863 235.77 230.976 235.77 233.18C235.77 235.384 234.894 237.498 233.336 239.056C231.778 240.615 229.664 241.49 227.46 241.49Z" fill="white"/>
<path d="M177.86 232.76C177.855 232.371 177.93 231.985 178.081 231.626C178.232 231.267 178.455 230.943 178.736 230.674C179.018 230.404 179.351 230.196 179.717 230.061C180.082 229.927 180.471 229.868 180.86 229.89C181.257 229.876 181.653 229.947 182.02 230.099C182.388 230.251 182.718 230.48 182.99 230.77L182.47 231.27C182.269 231.054 182.024 230.883 181.751 230.769C181.479 230.655 181.185 230.601 180.89 230.61C180.535 230.614 180.186 230.705 179.875 230.876C179.564 231.047 179.3 231.292 179.107 231.59C178.913 231.888 178.797 232.229 178.768 232.583C178.738 232.937 178.797 233.293 178.939 233.618C179.081 233.944 179.301 234.229 179.58 234.449C179.859 234.669 180.188 234.816 180.537 234.878C180.887 234.939 181.247 234.913 181.584 234.802C181.921 234.691 182.225 234.498 182.47 234.24L182.99 234.74C182.717 235.031 182.385 235.261 182.015 235.413C181.646 235.564 181.249 235.635 180.85 235.62C180.462 235.642 180.075 235.584 179.711 235.45C179.346 235.316 179.014 235.108 178.733 234.84C178.453 234.572 178.231 234.249 178.08 233.891C177.93 233.533 177.855 233.148 177.86 232.76Z" fill="white"/>
<path d="M183.53 232.76C183.502 232.162 183.654 231.568 183.966 231.057C184.278 230.546 184.736 230.139 185.281 229.891C185.827 229.642 186.434 229.562 187.025 229.662C187.615 229.761 188.163 230.035 188.597 230.449C189.03 230.862 189.33 231.396 189.458 231.981C189.585 232.567 189.535 233.177 189.312 233.733C189.09 234.29 188.706 234.767 188.21 235.103C187.714 235.439 187.129 235.619 186.53 235.62C186.142 235.641 185.755 235.582 185.391 235.447C185.027 235.312 184.694 235.105 184.413 234.837C184.132 234.569 183.909 234.247 183.757 233.89C183.605 233.533 183.528 233.148 183.53 232.76ZM188.68 232.76C188.686 232.327 188.563 231.903 188.326 231.54C188.09 231.177 187.751 230.893 187.353 230.724C186.954 230.555 186.515 230.508 186.09 230.589C185.664 230.671 185.273 230.877 184.966 231.182C184.658 231.486 184.448 231.875 184.363 232.3C184.278 232.724 184.32 233.164 184.486 233.564C184.652 233.964 184.933 234.306 185.293 234.545C185.653 234.785 186.077 234.912 186.51 234.91C186.796 234.92 187.081 234.871 187.347 234.766C187.613 234.662 187.855 234.504 188.059 234.303C188.262 234.102 188.422 233.861 188.528 233.596C188.635 233.33 188.687 233.046 188.68 232.76Z" fill="white"/>
<path d="M195.52 230V235.6H194.86L191.5 231.42V235.6H190.7V230H191.36L194.72 234.17V230H195.52Z" fill="white"/>
<path d="M198.31 230.65H196.39V230H201V230.69H199.1V235.6H198.31V230.65Z" fill="white"/>
<path d="M201.89 230H202.69V235.6H201.89V230Z" fill="white"/>
<path d="M209.19 230V235.6H208.53L205.17 231.42V235.6H204.37V230H205L208.36 234.17V230H209.19Z" fill="white"/>
<path d="M210.82 233.14V230H211.62V233.15C211.62 234.39 212.19 234.95 213.2 234.95C214.21 234.95 214.78 234.39 214.78 233.15V230H215.56V233.18C215.56 233.809 215.31 234.411 214.866 234.856C214.421 235.3 213.818 235.55 213.19 235.55C212.561 235.55 211.958 235.3 211.514 234.856C211.07 234.411 210.82 233.809 210.82 233.18V233.14Z" fill="white"/>
<path d="M221.26 234.86V235.56H217.2V230H221.2V230.69H218V232.41H220.8V233.09H218V234.9L221.26 234.86Z" fill="white"/>
<path opacity="0.1" d="M296.49 103.52C263.78 136.29 179.77 209.23 84.5798 203.83V103.52H296.49Z" fill="white"/>
<path opacity="0.1" d="M321.14 163.75V260.5H178.72C184.18 240.96 195.1 214.2 216.28 195.08C254.38 160.68 298.6 160.78 321.14 163.75Z" fill="white"/>
<path d="M351.23 88.0898L354.55 102.75L357.87 88.0898H351.23Z" fill="#729900"/>
<path opacity="0.7" d="M351.23 88.0898L354.55 102.75L357.87 88.0898H351.23Z" fill="white"/>
<path d="M391.71 46.5801H317.4C312.656 46.5801 308.81 50.4259 308.81 55.1701V82.7501C308.81 87.4942 312.656 91.3401 317.4 91.3401H391.71C396.454 91.3401 400.3 87.4942 400.3 82.7501V55.1701C400.3 50.4259 396.454 46.5801 391.71 46.5801Z" fill="#729900"/>
<path opacity="0.7" d="M391.71 46.5801H317.4C312.656 46.5801 308.81 50.4259 308.81 55.1701V82.7501C308.81 87.4942 312.656 91.3401 317.4 91.3401H391.71C396.454 91.3401 400.3 87.4942 400.3 82.7501V55.1701C400.3 50.4259 396.454 46.5801 391.71 46.5801Z" fill="white"/>
<g opacity="0.5">
<path d="M327.08 62.9999V64.9299H326.29V62.9999L324.07 59.3599H324.93L326.72 62.3599L328.52 59.3599H329.31L327.08 62.9999Z" fill="#263238"/>
<path d="M329.13 62.8198C329.122 62.3811 329.245 61.95 329.483 61.5813C329.721 61.2127 330.063 60.9232 330.466 60.7498C330.869 60.5763 331.315 60.5268 331.746 60.6075C332.177 60.6882 332.575 60.8955 332.888 61.2029C333.201 61.5103 333.416 61.904 333.504 62.3338C333.593 62.7635 333.551 63.2099 333.385 63.6161C333.219 64.0222 332.936 64.3698 332.572 64.6144C332.208 64.8591 331.779 64.9898 331.34 64.9898C331.05 65.0037 330.759 64.9575 330.488 64.8538C330.216 64.7502 329.968 64.5916 329.761 64.3878C329.553 64.184 329.39 63.9396 329.282 63.6697C329.173 63.3999 329.121 63.1106 329.13 62.8198ZM332.76 62.8198C332.777 62.6227 332.752 62.4242 332.688 62.237C332.624 62.0498 332.522 61.878 332.388 61.7324C332.254 61.5867 332.091 61.4705 331.91 61.3909C331.729 61.3114 331.533 61.2704 331.335 61.2704C331.137 61.2704 330.941 61.3114 330.76 61.3909C330.579 61.4705 330.416 61.5867 330.283 61.7324C330.149 61.878 330.046 62.0498 329.982 62.237C329.918 62.4242 329.894 62.6227 329.91 62.8198C329.894 63.017 329.918 63.2154 329.982 63.4026C330.046 63.5898 330.149 63.7617 330.283 63.9073C330.416 64.0529 330.579 64.1692 330.76 64.2487C330.941 64.3283 331.137 64.3693 331.335 64.3693C331.533 64.3693 331.729 64.3283 331.91 64.2487C332.091 64.1692 332.254 64.0529 332.388 63.9073C332.522 63.7617 332.624 63.5898 332.688 63.4026C332.752 63.2154 332.777 63.017 332.76 62.8198Z" fill="#263238"/>
<path d="M338.55 60.7002V64.9402H337.83V64.3002C337.664 64.5231 337.446 64.7023 337.195 64.8224C336.944 64.9426 336.668 65.0002 336.39 64.9902C336.142 65.0157 335.891 64.9852 335.656 64.901C335.421 64.8167 335.208 64.6809 335.032 64.5034C334.856 64.3259 334.723 64.1113 334.641 63.8754C334.56 63.6395 334.532 63.3883 334.56 63.1402V60.7002H335.33V63.0602C335.33 63.8902 335.75 64.3002 336.48 64.3002C336.663 64.3121 336.846 64.2833 337.017 64.2159C337.187 64.1484 337.341 64.044 337.466 63.91C337.591 63.7761 337.686 63.6161 337.742 63.4415C337.798 63.2669 337.814 63.082 337.79 62.9002V60.7002H338.55Z" fill="#263238"/>
<path d="M342.3 60.6602V61.4102H342.12C341.933 61.398 341.746 61.4276 341.573 61.4966C341.399 61.5657 341.243 61.6725 341.115 61.8094C340.988 61.9463 340.893 62.1098 340.837 62.2881C340.78 62.4664 340.764 62.655 340.79 62.8402V64.9502H340V60.7002H340.74V61.4202C340.9 61.1578 341.132 60.9467 341.409 60.812C341.685 60.6774 341.995 60.6247 342.3 60.6602Z" fill="#263238"/>
<path d="M345.11 62.1398C345.084 61.5416 345.238 60.9493 345.551 60.4391C345.865 59.929 346.324 59.5243 346.869 59.2772C347.414 59.0301 348.021 58.9518 348.611 59.0525C349.202 59.1531 349.748 59.4281 350.181 59.842C350.614 60.2559 350.913 60.7898 351.039 61.375C351.166 61.9602 351.115 62.57 350.892 63.1258C350.669 63.6816 350.285 64.158 349.789 64.4937C349.294 64.8295 348.709 65.0092 348.11 65.0098C347.721 65.0317 347.332 64.9735 346.967 64.8388C346.602 64.704 346.268 64.4956 345.987 64.2264C345.705 63.9573 345.482 63.6332 345.331 63.2742C345.181 62.9152 345.105 62.5291 345.11 62.1398ZM350.26 62.1398C350.266 61.707 350.143 61.2822 349.907 60.9195C349.67 60.5569 349.331 60.2728 348.933 60.1035C348.535 59.9342 348.095 59.8873 347.67 59.9688C347.245 60.0503 346.853 60.2565 346.546 60.5612C346.238 60.8658 346.029 61.2551 345.943 61.6795C345.858 62.1038 345.9 62.544 346.066 62.9439C346.232 63.3438 346.513 63.6854 346.873 63.9251C347.234 64.1647 347.657 64.2917 348.09 64.2898C348.376 64.2994 348.661 64.2505 348.927 64.1461C349.193 64.0417 349.435 63.8841 349.639 63.6827C349.842 63.4814 350.002 63.2407 350.109 62.9754C350.215 62.7101 350.267 62.4257 350.26 62.1398Z" fill="#263238"/>
<path d="M353.32 60.0001H351.4V59.3101H356V60.0001H354.08V64.9001H353.29L353.32 60.0001Z" fill="#263238"/>
<path d="M361.42 61.3001C361.42 62.5101 360.54 63.2501 359.08 63.2501H357.7V64.9401H356.9V59.3501H359.08C360.54 59.3501 361.42 60.0801 361.42 61.3001ZM360.62 61.3001C360.62 60.5001 360.08 60.0401 359.06 60.0401H357.7V62.5501H359.06C360.08 62.5501 360.62 62.1001 360.62 61.3001Z" fill="#263238"/>
<path d="M364.37 62.14C364.397 61.5613 364.591 61.0028 364.928 60.5319C365.266 60.061 365.732 59.6979 366.272 59.4864C366.811 59.2749 367.4 59.2241 367.968 59.3401C368.535 59.456 369.057 59.7339 369.47 60.14L368.95 60.65C368.75 60.4324 368.505 60.26 368.232 60.1445C367.96 60.029 367.666 59.9729 367.37 59.98C366.8 59.98 366.253 60.2066 365.85 60.6098C365.447 61.013 365.22 61.5598 365.22 62.13C365.22 62.7003 365.447 63.2471 365.85 63.6503C366.253 64.0535 366.8 64.28 367.37 64.28C367.666 64.2872 367.96 64.2311 368.232 64.1156C368.505 64.0001 368.75 63.8277 368.95 63.61L369.47 64.12C369.057 64.5262 368.535 64.804 367.968 64.92C367.4 65.036 366.811 64.9852 366.272 64.7737C365.732 64.5622 365.266 64.1991 364.928 63.7282C364.591 63.2573 364.397 62.6987 364.37 62.12V62.14Z" fill="#263238"/>
<path d="M369.93 62.8198C369.922 62.3811 370.045 61.95 370.283 61.5813C370.521 61.2127 370.863 60.9232 371.266 60.7498C371.669 60.5763 372.115 60.5268 372.546 60.6075C372.978 60.6882 373.375 60.8955 373.688 61.2029C374.001 61.5103 374.216 61.904 374.304 62.3338C374.393 62.7635 374.351 63.2099 374.185 63.6161C374.019 64.0222 373.736 64.3698 373.372 64.6144C373.008 64.8591 372.579 64.9898 372.14 64.9898C371.85 65.0037 371.559 64.9575 371.288 64.8538C371.016 64.7502 370.768 64.5916 370.561 64.3878C370.353 64.184 370.19 63.9396 370.082 63.6697C369.973 63.3999 369.922 63.1106 369.93 62.8198ZM373.56 62.8198C373.577 62.6227 373.552 62.4242 373.488 62.237C373.424 62.0498 373.322 61.878 373.188 61.7324C373.054 61.5867 372.891 61.4705 372.71 61.3909C372.529 61.3114 372.333 61.2704 372.135 61.2704C371.937 61.2704 371.742 61.3114 371.56 61.3909C371.379 61.4705 371.216 61.5867 371.083 61.7324C370.949 61.878 370.846 62.0498 370.782 62.237C370.718 62.4242 370.694 62.6227 370.71 62.8198C370.694 63.017 370.718 63.2154 370.782 63.4026C370.846 63.5898 370.949 63.7617 371.083 63.9073C371.216 64.0529 371.379 64.1692 371.56 64.2487C371.742 64.3283 371.937 64.3693 372.135 64.3693C372.333 64.3693 372.529 64.3283 372.71 64.2487C372.891 64.1692 373.054 64.0529 373.188 63.9073C373.322 63.7617 373.424 63.5898 373.488 63.4026C373.552 63.2154 373.577 63.017 373.56 62.8198Z" fill="#263238"/>
<path d="M379.4 59V64.93H378.67V64.26C378.495 64.4933 378.267 64.6807 378.004 64.8061C377.741 64.9315 377.451 64.9912 377.16 64.98C376.611 64.9427 376.097 64.6984 375.722 64.2965C375.346 63.8946 375.137 63.365 375.137 62.815C375.137 62.265 375.346 61.7355 375.722 61.3335C376.097 60.9316 376.611 60.6873 377.16 60.65C377.442 60.6414 377.723 60.6983 377.98 60.8163C378.237 60.9342 378.463 61.1101 378.64 61.33V59H379.4ZM378.64 62.81C378.626 62.5301 378.531 62.2605 378.365 62.0345C378.199 61.8085 377.971 61.6362 377.708 61.5389C377.445 61.4417 377.16 61.4238 376.887 61.4874C376.614 61.551 376.366 61.6934 376.173 61.8969C375.981 62.1004 375.852 62.356 375.803 62.632C375.755 62.9079 375.788 63.1921 375.9 63.4491C376.011 63.7062 376.196 63.9248 376.431 64.0779C376.665 64.2309 376.94 64.3116 377.22 64.31C377.414 64.3147 377.606 64.2788 377.785 64.2046C377.965 64.1305 378.126 64.0197 378.26 63.8794C378.394 63.739 378.496 63.5723 378.562 63.3899C378.627 63.2074 378.654 63.0133 378.64 62.82V62.81Z" fill="#263238"/>
<path d="M384.67 63.0802H381.24C381.288 63.4435 381.473 63.7748 381.758 64.0055C382.042 64.2363 382.405 64.3489 382.77 64.3202C382.998 64.3284 383.225 64.287 383.436 64.1989C383.647 64.1109 383.836 63.9783 383.99 63.8102L384.42 64.3002C384.107 64.6177 383.708 64.8378 383.273 64.9337C382.837 65.0297 382.383 64.9975 381.965 64.841C381.547 64.6844 381.184 64.4103 380.919 64.0517C380.653 63.6931 380.498 63.2654 380.47 62.8202C380.459 62.5361 380.506 62.2528 380.609 61.9877C380.712 61.7227 380.868 61.4815 381.067 61.2791C381.267 61.0767 381.506 60.9173 381.77 60.8109C382.033 60.7044 382.316 60.6531 382.6 60.6602C382.887 60.6459 383.174 60.6936 383.44 60.8C383.707 60.9065 383.948 61.0691 384.146 61.2769C384.345 61.4847 384.496 61.7328 384.59 62.0043C384.683 62.2758 384.718 62.5643 384.69 62.8502C384.688 62.9272 384.681 63.004 384.67 63.0802ZM381.24 62.5302H384C383.971 62.1909 383.816 61.8749 383.565 61.6447C383.314 61.4144 382.986 61.2867 382.645 61.2867C382.305 61.2867 381.976 61.4144 381.726 61.6447C381.475 61.8749 381.319 62.1909 381.29 62.5302H381.24Z" fill="#263238"/>
</g>
<g opacity="0.5">
<path d="M343 73.7004C343 76.8504 341.23 78.5304 338.64 78.5304C337.842 78.5586 337.051 78.3721 336.35 77.9904L336.85 76.9904C337.391 77.2982 338.008 77.4473 338.63 77.4204C340.5 77.4204 341.69 76.2504 341.69 73.9404V73.6204C341.381 74.0259 340.976 74.3486 340.512 74.5597C340.048 74.7708 339.539 74.8638 339.03 74.8304C338.636 74.8737 338.237 74.834 337.86 74.714C337.482 74.5939 337.134 74.3961 336.837 74.1334C336.54 73.8706 336.302 73.5486 336.137 73.1881C335.972 72.8276 335.885 72.4367 335.88 72.0404C335.89 71.6312 335.983 71.2283 336.154 70.8565C336.325 70.4847 336.57 70.1518 336.874 69.8783C337.179 69.6048 337.536 69.3964 337.924 69.2661C338.312 69.1357 338.722 69.0862 339.13 69.1204C341.6 69.1004 343 70.7604 343 73.7004ZM341.37 72.0004C341.37 71.0504 340.61 70.2204 339.17 70.2204C338.919 70.1938 338.664 70.2203 338.424 70.298C338.183 70.3757 337.961 70.503 337.773 70.6716C337.585 70.8403 337.434 71.0466 337.33 71.2771C337.226 71.5077 337.172 71.7575 337.17 72.0104C337.17 73.0904 337.97 73.7904 339.26 73.7904C339.517 73.8164 339.777 73.7904 340.024 73.7137C340.27 73.6371 340.499 73.5114 340.696 73.3443C340.893 73.1772 341.054 72.972 341.17 72.7411C341.286 72.5101 341.354 72.2582 341.37 72.0004Z" fill="#263238"/>
<path d="M344.26 73.8201C344.26 70.8201 345.87 69.1001 348.03 69.1001C350.19 69.1001 351.78 70.8201 351.78 73.8201C351.78 76.8201 350.17 78.5301 348.03 78.5301C345.89 78.5301 344.26 76.8201 344.26 73.8201ZM350.46 73.8201C350.46 71.4601 349.46 70.2801 348.03 70.2801C346.6 70.2801 345.58 71.4601 345.58 73.8201C345.58 76.1801 346.58 77.3601 348.03 77.3601C349.48 77.3601 350.46 76.1801 350.46 73.8201Z" fill="#263238"/>
<path d="M359.49 77.2803V78.4303H352.86V77.5303L356.62 73.9103C357.62 72.9603 357.77 72.3803 357.77 71.8003C357.77 70.8603 357.1 70.2803 355.77 70.2803C355.328 70.2543 354.885 70.331 354.478 70.5045C354.07 70.678 353.708 70.9435 353.42 71.2803L352.52 70.5003C352.943 70.0319 353.465 69.6633 354.048 69.4212C354.63 69.1791 355.26 69.0695 355.89 69.1003C357.81 69.1003 359.05 70.1003 359.05 71.6703C359.035 72.2366 358.891 72.7921 358.63 73.2946C358.368 73.797 357.995 74.2333 357.54 74.5703L354.72 77.2803H359.49Z" fill="#263238"/>
<path d="M363.43 69.2104V78.4304H362.12V70.3604H360V69.2104H363.43Z" fill="#263238"/>
<path d="M365.44 73.8201C365.44 70.8201 367.05 69.1001 369.21 69.1001C371.37 69.1001 372.96 70.8201 372.96 73.8201C372.96 76.8201 371.36 78.5301 369.21 78.5301C367.06 78.5301 365.44 76.8201 365.44 73.8201ZM371.65 73.8201C371.65 71.4601 370.65 70.2801 369.21 70.2801C367.77 70.2801 366.76 71.4601 366.76 73.8201C366.76 76.1801 367.76 77.3601 369.21 77.3601C370.66 77.3601 371.65 76.1801 371.65 73.8201Z" fill="#263238"/>
</g>
<path d="M346.33 131.09C352.299 135.22 358.977 138.22 366.03 139.94H366.1C365.572 139.924 365.052 140.071 364.61 140.36C364.174 140.631 363.827 141.024 363.61 141.49C363.537 141.632 363.496 141.789 363.49 141.95C363.65 139.85 362.74 137.49 362.1 135.22C360.95 131.63 359.6 127.95 358.25 124.34L362.11 122.27C365.3 127.16 375.95 142.64 368.68 147.12C367.433 147.846 365.961 148.082 364.55 147.78C356.628 146.606 349.074 143.66 342.45 139.16C341.99 138.84 341.59 138.56 341.05 138.16L346.35 131.07L346.33 131.09Z" fill="#DC897C"/>
<path d="M345.21 130C348.711 130.422 352.036 131.772 354.84 133.91L350.84 146.29C350.84 146.29 331.4 128.37 345.21 130Z" fill="#729900"/>
<path opacity="0.6" d="M345.17 140.41C346.95 142.448 348.832 144.394 350.81 146.24L352.46 141.15L354.84 133.86C352.039 131.723 348.718 130.373 345.22 129.95C336.72 129 340.78 135.36 345.17 140.41Z" fill="white"/>
<path opacity="0.2" d="M345.17 140.41C346.949 142.448 348.832 144.394 350.81 146.24L352.46 141.15C350.385 139.533 347.83 138.654 345.2 138.65C345.14 139.235 345.13 139.823 345.17 140.41Z" fill="black"/>
<path d="M302 111.69C302 111.69 292.7 142.61 312.29 146.76C331.88 150.91 334 136.68 334 136.68C334 136.68 317.9 112.32 302 111.69Z" fill="#263238"/>
<path d="M297.41 121.93C297.374 121.94 297.336 121.94 297.3 121.93C297.272 121.916 297.246 121.897 297.226 121.873C297.205 121.849 297.19 121.821 297.181 121.791C297.171 121.762 297.168 121.73 297.171 121.699C297.175 121.667 297.184 121.637 297.2 121.61C297.492 121.076 297.905 120.618 298.404 120.271C298.904 119.924 299.478 119.698 300.08 119.61C300.142 119.612 300.202 119.636 300.248 119.678C300.293 119.721 300.323 119.778 300.33 119.84C300.333 119.871 300.329 119.903 300.319 119.933C300.31 119.964 300.294 119.991 300.274 120.016C300.254 120.04 300.228 120.06 300.2 120.074C300.172 120.089 300.141 120.097 300.11 120.1C299.588 120.185 299.093 120.388 298.662 120.693C298.23 120.998 297.874 121.397 297.62 121.86C297.594 121.889 297.561 121.911 297.524 121.923C297.487 121.935 297.448 121.938 297.41 121.93Z" fill="#263238"/>
<path d="M300.21 125.77C300.084 126.975 299.812 128.16 299.4 129.3C299.71 129.484 300.064 129.582 300.425 129.582C300.786 129.582 301.14 129.484 301.45 129.3L300.21 125.77Z" fill="#DE5753"/>
<path d="M298.32 124.42C298.53 124.97 299 125.3 299.32 125.16C299.64 125.02 299.82 124.47 299.61 123.92C299.4 123.37 298.93 123.04 298.61 123.18C298.29 123.32 298.12 123.87 298.32 124.42Z" fill="#263238"/>
<path d="M298.77 123.15H297.4C297.4 123.15 298.38 123.91 298.77 123.15Z" fill="#263238"/>
<path d="M318.23 129.61C318.195 129.699 318.148 129.784 318.09 129.86C318 130.03 317.9 130.19 317.8 130.36C317.214 131.414 316.433 132.347 315.5 133.11C312.5 135.5 309.89 136.22 307.62 135.53L307.29 135.42C303.92 134.05 301.29 130.02 299.2 124.69C298.272 122.604 297.688 120.382 297.47 118.11C297.47 118.11 297.47 118.03 297.47 118.01C297.47 117.99 297.47 117.83 297.47 117.75C297.392 116.448 297.64 115.146 298.192 113.964C298.743 112.782 299.581 111.756 300.63 110.98C301.526 110.276 302.499 109.676 303.53 109.19C313.52 104.32 323.24 120.18 318.23 129.61Z" fill="#E4897B"/>
<path opacity="0.2" d="M317.8 130.36C317.214 131.413 316.433 132.347 315.5 133.11C312.5 135.5 309.89 136.22 307.62 135.53C309.827 134.995 311.815 133.789 313.31 132.08C313.887 131.482 314.588 131.018 315.364 130.721C316.14 130.424 316.971 130.301 317.8 130.36Z" fill="black"/>
<path d="M297.42 118.05C297.42 118.05 300.21 125.39 308.36 125.26C308.36 125.26 314.72 131.26 319.01 129.35C324.86 126.76 326.06 116.12 320.1 108.69C312.36 99.0496 295.48 106 297.42 118.05Z" fill="#263238"/>
<path d="M304 124.84C303.48 123.73 303.49 121.46 305.32 120.9C307.15 120.34 310.32 124.23 306.38 127.27C305.82 127.71 305.08 127.14 304 124.84Z" fill="#E4897B"/>
<path d="M306.19 104.69C306.19 104.69 298.63 106.18 296.19 110.69C293.33 115.93 293.19 119.99 300.79 122.69C300.79 122.69 310.4 113.69 314.54 112.69C316.953 112.091 319.411 111.696 321.89 111.51C319.13 103.52 309.24 101.38 306.19 104.69Z" fill="#263238"/>
<path d="M313.52 133.3C313.52 133.3 318.72 136.9 320.07 142.84L336.28 133.38C336.28 133.38 323.59 130.49 321.41 125.58C321.41 125.58 312.93 126.63 313.52 133.3Z" fill="#E4897B"/>
<path d="M329.62 172.25C329.62 172.25 308.62 151.62 306.36 145.14C306.36 145.14 315.19 131.39 332.84 130.81C350.49 130.23 362.5 163.81 362.5 163.81L329.62 172.25Z" fill="#729900"/>
<path opacity="0.6" d="M362.5 163.82L329.63 172.26C329.63 172.26 325.05 167.75 319.93 162.26C318.35 160.55 316.7 158.75 315.11 156.97C310.94 152.24 307.26 147.62 306.37 145.11C306.37 145.11 315.19 131.36 332.84 130.78C350.49 130.2 362.5 163.82 362.5 163.82Z" fill="white"/>
<path d="M310 121.74C310 121.74 313.07 131.94 323.85 135.32C334.63 138.7 331.92 149.71 342.37 148.41C347.93 147.72 352.69 136.41 335.64 126.41C325.7 120.6 329.56 101.5 308.46 103.29C308.44 103.3 312.82 116.39 310 121.74Z" fill="#263238"/>
<path d="M320.47 327.73L315.47 326.59C316.22 301.59 319.83 271.36 323.02 248.65C323.52 245.09 324.02 241.73 324.48 238.59C324.71 237.1 324.92 235.67 325.13 234.29C326.13 227.48 327.05 222.1 327.6 218.77C328.01 216.34 328.24 215.01 328.24 215.01L346.24 219.4L344.95 223.94L340.7 238.94L340.22 240.65L337.4 250.54L332.62 267.37C332.92 292.78 320.47 327.73 320.47 327.73Z" fill="#E4897B"/>
<path d="M363.27 323.55L358.15 323.29C354.25 296.41 352.61 262.79 351.9 239.42C351.8 235.8 351.71 232.42 351.64 229.34C351.64 229.19 351.64 229.04 351.64 228.89C351.51 222.8 351.45 217.96 351.42 214.89C351.42 212.49 351.42 211.18 351.42 211.18L369.89 212.39L369.1 220.09L367.94 231.39L367.71 233.61L366.91 241.31L364.75 262C369.47 287 363.27 323.55 363.27 323.55Z" fill="#E4897B"/>
<path d="M365.19 322.55C365.19 321.91 357.29 322.41 357.29 322.41C357.29 322.41 352.44 327.34 347.73 328.41C343.02 329.48 345.66 332.35 350.92 332.35H363.92C367.68 332.39 365.34 329.2 365.19 322.55Z" fill="#263238"/>
<path d="M352.45 324.24C352.336 324.136 352.256 324 352.222 323.85C352.188 323.699 352.201 323.542 352.26 323.4C352.291 323.288 352.344 323.183 352.416 323.092C352.488 323.001 352.578 322.925 352.68 322.87C353.24 322.641 353.853 322.572 354.45 322.67C353.81 322.33 353.25 321.92 353.22 321.5C353.22 321.23 353.38 321.01 353.74 320.84C353.897 320.768 354.067 320.731 354.24 320.731C354.412 320.731 354.583 320.768 354.74 320.84C355.81 321.29 356.47 323.13 356.5 323.2C356.521 323.251 356.521 323.308 356.5 323.36V323.41C356.481 323.432 356.457 323.449 356.43 323.46C355.41 323.982 354.307 324.32 353.17 324.46C352.911 324.477 352.655 324.399 352.45 324.24ZM352.89 323.24C352.836 323.267 352.787 323.305 352.748 323.352C352.708 323.398 352.678 323.452 352.66 323.51C352.58 323.82 352.66 323.9 352.66 323.93C353.04 324.24 354.48 323.8 355.66 323.31C354.762 323.026 353.803 322.998 352.89 323.23V323.24ZM353.89 321.24C353.78 321.24 353.6 321.39 353.61 321.5C353.61 321.85 354.76 322.5 355.92 322.91C355.661 322.217 355.188 321.625 354.57 321.22C354.47 321.173 354.36 321.149 354.25 321.15C354.136 321.149 354.024 321.173 353.92 321.22L353.89 321.24Z" fill="#263238"/>
<path d="M323 322.55C323 321.91 315.11 322.41 315.11 322.41C315.11 322.41 310.26 327.34 305.55 328.41C300.84 329.48 303.47 332.35 308.73 332.35H321.73C325.5 332.39 323.17 329.2 323 322.55Z" fill="#263238"/>
<path d="M310.27 324.24C310.158 324.134 310.08 323.998 310.047 323.849C310.013 323.699 310.024 323.543 310.08 323.4C310.111 323.288 310.164 323.183 310.236 323.092C310.309 323.001 310.398 322.925 310.5 322.87C311.06 322.641 311.673 322.572 312.27 322.67C311.63 322.33 311.07 321.92 311.05 321.5C311.05 321.233 311.22 321.013 311.56 320.84C311.717 320.768 311.888 320.731 312.06 320.731C312.232 320.731 312.403 320.768 312.56 320.84C313.63 321.29 314.29 323.13 314.32 323.2C314.332 323.224 314.339 323.252 314.339 323.28C314.339 323.307 314.332 323.335 314.32 323.36C314.32 323.36 314.32 323.36 314.32 323.41L314.25 323.46C313.226 323.98 312.12 324.318 310.98 324.46C310.725 324.473 310.473 324.395 310.27 324.24ZM310.71 323.24C310.657 323.267 310.61 323.305 310.572 323.352C310.534 323.398 310.506 323.452 310.49 323.51C310.41 323.82 310.49 323.9 310.54 323.93C310.91 324.24 312.35 323.8 313.54 323.31C312.623 323.015 311.642 322.987 310.71 323.23V323.24ZM311.71 321.24C311.6 321.24 311.42 321.39 311.43 321.5C311.43 321.85 312.58 322.5 313.75 322.91C313.488 322.216 313.011 321.624 312.39 321.22C312.29 321.172 312.181 321.148 312.07 321.15C311.956 321.149 311.844 321.173 311.74 321.22L311.71 321.24Z" fill="#263238"/>
<path d="M325.36 222.53L329.62 192.53V172.23C340.85 163.79 362.5 163.79 362.5 163.79C362.5 163.79 379.13 186.86 371.05 224.79L350.17 227.79L348.84 220.71L346.22 227.79L325.36 222.53Z" fill="#263238"/>
<path opacity="0.2" d="M325.36 222.53L329.62 192.53V172.23C340.85 163.79 362.5 163.79 362.5 163.79C362.5 163.79 379.13 186.86 371.05 224.79L350.17 227.79L348.84 220.71L346.22 227.79L325.36 222.53Z" fill="white"/>
<path opacity="0.2" d="M348.84 220.82L352.84 208.33C352.84 208.33 357.06 207.05 362.48 198.67C362.5 198.67 361.56 212.93 348.84 220.82Z" fill="black"/>
<path opacity="0.2" d="M339.94 178L349.31 177.11C350.805 180.613 351.324 184.456 350.81 188.23L344.81 191.84L340.46 188.75C340.46 188.75 340.32 180.82 339.94 178Z" fill="black"/>
<path opacity="0.2" d="M362.5 175.71C363.757 178.801 364.686 182.015 365.27 185.3L368.59 186.71L370.38 184.48C370.38 184.48 369.17 177.95 367.12 174.75L362.5 175.71Z" fill="black"/>
<path d="M324.97 220.82L347.13 227.32L345.74 230.3L324.69 223.82L324.97 220.82Z" fill="#263238"/>
<path d="M349.31 226.89L349.68 229.63L371.41 226.89L371.74 223.44L349.31 226.89Z" fill="#263238"/>
<path d="M353.87 168C357.424 167.399 361.016 167.049 364.62 166.95L363.28 164.74C359.775 164.647 356.269 164.855 352.8 165.36L353.87 168Z" fill="#263238"/>
<path d="M333.94 170.72C331.07 171.96 329.42 172.89 329.42 172.89V175.62C331.033 174.806 332.65 174.063 334.27 173.39L333.94 170.72Z" fill="#263238"/>
<path d="M335.32 173C340.878 170.821 346.645 169.216 352.53 168.21L351.53 165.55C345.825 166.501 340.248 168.105 334.91 170.33L335.32 173Z" fill="#263238"/>
<path d="M275.24 180.81L269.56 178.53L268.56 183.89C268.56 183.89 273.68 186.99 275.82 183.3L275.24 180.81Z" fill="#E4897B"/>
<path d="M266.74 178.86L264.92 183L268.6 183.89L269.56 178.53L266.74 178.86Z" fill="#E4897B"/>
<path d="M362.41 123.2L361.74 117.12L356.56 118.8C356.56 118.8 356.24 124.8 360.51 124.92L362.41 123.2Z" fill="#E4897B"/>
<path d="M360.11 114.79L355.6 115.15L356.56 118.8L361.74 117.12L360.11 114.79Z" fill="#E4897B"/>
<path opacity="0.2" d="M319.93 162.29C318.35 160.58 316.7 158.78 315.11 157C314.5 153.28 314.11 150 314.11 150C316.015 151.413 317.542 153.274 318.557 155.417C319.572 157.561 320.044 159.921 319.93 162.29Z" fill="black"/>
<path d="M314.69 148.28C312.4 157.514 308.942 166.419 304.4 174.78C299.9 183.33 282.79 184.36 274.19 184.58L273.79 180.22C278.97 179 295.07 175.79 297.27 171.12C300.862 163.029 303.817 154.67 306.11 146.12L314.69 148.26V148.28Z" fill="#DC897C"/>
<path d="M309.79 140.74C304.9 143.94 302.28 152.26 301.45 156.33L311.61 163.81L316.74 158.81C318.82 147.33 311.65 139.53 309.79 140.74Z" fill="#729900"/>
<path opacity="0.6" d="M309.79 140.74C304.9 143.94 302.28 152.26 301.45 156.33L311.61 163.81L316.74 158.81C318.82 147.33 311.65 139.53 309.79 140.74Z" fill="white"/>
<path d="M359.39 125.15L352.13 125.93C352.028 125.932 351.926 125.914 351.831 125.876C351.736 125.837 351.65 125.78 351.579 125.706C351.507 125.633 351.452 125.546 351.416 125.45C351.38 125.354 351.364 125.252 351.37 125.15L350.93 109.78C350.916 109.562 350.981 109.347 351.113 109.174C351.246 109.002 351.436 108.883 351.65 108.84L358.9 108.07C359.003 108.065 359.105 108.082 359.201 108.12C359.296 108.158 359.383 108.216 359.454 108.289C359.526 108.363 359.582 108.451 359.617 108.548C359.652 108.644 359.667 108.747 359.66 108.85L360.1 124.22C360.114 124.434 360.05 124.647 359.919 124.818C359.789 124.989 359.601 125.106 359.39 125.15Z" fill="#263238"/>
<path opacity="0.6" d="M359.39 125.15L352.13 125.93C352.028 125.932 351.926 125.914 351.831 125.876C351.736 125.837 351.65 125.78 351.579 125.706C351.507 125.633 351.452 125.546 351.416 125.45C351.38 125.354 351.364 125.252 351.37 125.15L350.93 109.78C350.916 109.562 350.981 109.347 351.113 109.174C351.246 109.002 351.436 108.883 351.65 108.84L358.9 108.07C359.003 108.065 359.105 108.082 359.201 108.12C359.296 108.158 359.383 108.216 359.454 108.289C359.526 108.363 359.582 108.451 359.617 108.548C359.652 108.644 359.667 108.747 359.66 108.85L360.1 124.22C360.114 124.434 360.05 124.647 359.919 124.818C359.789 124.989 359.601 125.106 359.39 125.15Z" fill="white"/>
<path d="M358.75 125.22L351.5 125.99C351.397 125.996 351.294 125.98 351.198 125.943C351.102 125.906 351.015 125.85 350.942 125.777C350.87 125.704 350.813 125.617 350.777 125.521C350.74 125.425 350.724 125.322 350.73 125.22L350.3 109.84C350.281 109.624 350.344 109.41 350.475 109.238C350.606 109.066 350.797 108.949 351.01 108.91L358.26 108.14C358.362 108.135 358.463 108.153 358.558 108.19C358.653 108.227 358.739 108.284 358.81 108.356C358.882 108.429 358.938 108.516 358.974 108.611C359.01 108.706 359.025 108.808 359.02 108.91L359.46 124.29C359.478 124.505 359.416 124.72 359.285 124.892C359.153 125.064 358.963 125.181 358.75 125.22Z" fill="#263238"/>
<path opacity="0.7" d="M358.75 125.22L351.5 125.99C351.397 125.996 351.294 125.98 351.198 125.943C351.102 125.906 351.015 125.85 350.942 125.777C350.87 125.704 350.813 125.617 350.777 125.521C350.74 125.425 350.724 125.322 350.73 125.22L350.3 109.84C350.281 109.624 350.344 109.41 350.475 109.238C350.606 109.066 350.797 108.949 351.01 108.91L358.26 108.14C358.362 108.135 358.463 108.153 358.558 108.19C358.653 108.227 358.739 108.284 358.81 108.356C358.882 108.429 358.938 108.516 358.974 108.611C359.01 108.706 359.025 108.808 359.02 108.91L359.46 124.29C359.478 124.505 359.416 124.72 359.285 124.892C359.153 125.064 358.963 125.181 358.75 125.22Z" fill="white"/>
<path d="M358.27 108.44L356.37 108.64L356.13 109.23L353.19 109.54L352.92 109.01L351.02 109.21C350.882 109.239 350.76 109.316 350.675 109.428C350.591 109.541 350.55 109.68 350.56 109.82L350.99 125.19C350.985 125.257 350.995 125.324 351.019 125.386C351.042 125.449 351.079 125.506 351.127 125.553C351.174 125.601 351.231 125.637 351.293 125.661C351.356 125.684 351.423 125.694 351.49 125.69L358.74 124.92C358.877 124.893 358.999 124.818 359.084 124.707C359.168 124.597 359.21 124.459 359.2 124.32L358.77 108.94C358.773 108.873 358.762 108.807 358.738 108.745C358.713 108.683 358.677 108.627 358.63 108.58C358.583 108.533 358.526 108.496 358.465 108.472C358.403 108.448 358.336 108.437 358.27 108.44Z" fill="#729900"/>
<path opacity="0.8" d="M357.3 114L351.97 114.57C351.905 114.573 351.84 114.562 351.779 114.538C351.718 114.515 351.663 114.479 351.617 114.433C351.571 114.387 351.535 114.331 351.511 114.271C351.488 114.21 351.477 114.145 351.48 114.08V112.6C351.467 112.462 351.506 112.324 351.59 112.213C351.673 112.103 351.794 112.026 351.93 112L357.27 111.43C357.335 111.428 357.4 111.44 357.46 111.465C357.52 111.49 357.575 111.527 357.62 111.574C357.665 111.621 357.7 111.677 357.722 111.738C357.745 111.8 357.754 111.865 357.75 111.93L357.8 113.41C357.808 113.554 357.761 113.695 357.668 113.805C357.575 113.915 357.443 113.985 357.3 114Z" fill="white"/>
</g>
<defs>
<clipPath id="clip0_72_3108">
<rect width="500" height="372" fill="white"/>
</clipPath>
</defs>
</svg>
