<svg width="302" height="342" viewBox="0 0 302 342" fill="none" xmlns="http://www.w3.org/2000/svg">
<path d="M235.973 241.684C234.788 244.013 236.878 250.711 237.637 253.194C237.69 253.34 237.73 253.488 237.73 253.634C237.751 253.943 238.096 260.991 235.767 265.577C235.693 266.752 235.327 269.662 233.43 271.598C232.458 272.571 231.241 273.137 229.829 273.249C228.83 274.256 226.907 275.229 224.298 275.025C223.393 275.473 221.635 276.075 219.086 275.41C218.154 275.613 216.197 275.822 213.543 274.871C212.73 275.025 211.253 275.082 210.042 274.046C208.785 272.99 208.225 271.157 208.338 268.606C207.965 268.383 207.605 268.089 207.272 267.697C205.861 266.005 205.475 263.103 206.155 259.11C206.201 258.906 206.262 258.71 206.355 258.537C206.56 258.159 211.327 249.725 217.164 245.85C217.629 241.656 218.148 235.109 217.696 233.11C216.145 225.921 214.568 215.767 217.908 207.949C214.534 206.67 207.446 203.775 204.371 200.901C201.103 197.816 198.767 195.474 196.637 192.789C195.646 198.817 190.813 207.768 175.952 220.075C176.351 225.195 177.828 248.991 172.671 262.711L169.596 261.444C174.993 247.074 172.612 219.726 172.584 219.446C172.524 218.851 172.763 218.278 173.224 217.907C194.894 200.209 194.301 190.748 193.03 187.49C192.71 186.671 193.043 185.698 193.795 185.287C194.534 184.867 195.478 185.133 195.939 185.874C199 190.846 201.701 193.728 206.56 198.287C209.496 201.035 217.809 204.293 220.777 205.307C221.249 205.469 221.635 205.854 221.802 206.357C221.975 206.86 221.942 207.398 221.669 207.86C217.742 214.776 219.361 225.14 220.911 232.329C221.669 235.761 220.484 245.971 220.339 247.133C220.272 247.691 219.953 248.175 219.501 248.434C214.642 251.273 210.23 258.546 209.364 260.02C208.765 263.846 209.504 265.09 209.751 265.37C209.764 265.37 209.79 265.37 209.804 265.37C210.283 265.37 210.882 265.698 211.201 266.062C211.535 266.448 211.827 267.098 211.761 267.601C211.455 269.88 211.774 271.035 212.134 271.335C212.386 271.559 212.985 271.448 213.086 271.411C213.471 271.279 213.838 271.279 214.237 271.426C216.865 272.482 218.556 271.992 218.61 271.965C218.903 271.853 219.275 271.867 219.575 271.937C221.837 272.637 223.022 271.833 223.069 271.798C223.395 271.587 223.834 271.455 224.233 271.511C226.761 271.868 227.681 270.61 227.708 270.553C228.027 270.104 228.559 269.798 229.093 269.798C229.132 269.798 229.233 269.813 229.293 269.798C230.071 269.798 230.678 269.567 231.137 269.078C232.228 268.007 232.48 265.819 232.48 265.064C232.48 264.755 232.56 264.463 232.706 264.204C234.344 261.281 234.516 256.086 234.451 254.043C232.879 248.988 231.389 243.357 233.054 240.044C236.64 232.933 241.446 211.15 241.493 210.926C243.69 195.578 236.954 185.34 232.495 178.556C226.013 168.711 213.693 162.609 213.568 162.56C213.101 162.336 212.749 161.843 212.635 161.315C209.66 144.973 196.117 140.743 188.975 140.743C188.477 140.743 188.01 140.763 187.578 140.763C172.596 140.763 155.672 131.483 154.946 131.074C154.401 130.767 154.055 130.179 154.055 129.537C154.055 118.026 156.019 111.827 156.092 111.569C160.058 104.797 159.972 101.789 159.592 100.569C159.313 99.6598 158.753 99.3945 158.687 99.3808C157.98 99.0868 157.482 98.2794 157.596 97.4721C160.444 77.4578 146.595 73.8116 145.996 73.6749C145.981 73.6749 142.301 72.9583 139.746 73.2179C139.626 73.2179 139.412 73.2179 139.326 73.2179C136.697 72.9733 133.017 73.6899 132.99 73.6899C132.464 73.8334 118.627 77.4589 121.463 97.4721C121.596 98.3139 121.097 99.1396 120.319 99.3945C120.306 99.3945 119.746 99.6598 119.467 100.569C119.075 101.804 118.988 104.81 122.781 111.206C123.027 111.828 124.985 118.014 124.985 129.538C124.985 130.181 124.638 130.768 124.093 131.075C123.374 131.484 106.443 140.765 91.4741 140.765C91.015 140.765 90.5625 140.722 90.0772 140.744C82.9224 140.744 69.4051 144.975 66.4037 161.316C66.3108 161.845 65.984 162.296 65.525 162.534C65.3916 162.604 53.4844 168.943 47.076 178.627L46.417 179.649C41.7651 186.663 35.4289 196.236 37.5592 211.089C37.5854 211.18 42.3914 232.963 45.9644 240.074C47.6422 243.367 46.1448 249.003 44.5796 254.067C44.5403 255.241 44.4736 260.947 46.324 264.235C46.4705 264.494 46.5503 264.794 46.5634 265.102C46.5634 265.844 46.8028 268.018 47.8947 269.109C48.3669 269.584 48.9659 269.829 49.7452 269.829C49.8315 269.829 49.8851 269.829 49.9507 269.829C50.5234 269.829 51.0557 270.123 51.3486 270.633C51.3617 270.648 52.2405 271.899 54.7829 271.542C55.1895 271.479 55.6343 271.605 55.9742 271.85C56.007 271.85 57.2126 272.669 59.462 271.976C59.7943 271.871 60.1408 271.884 60.4468 272.01C60.4873 272.01 62.1639 272.5 64.7795 271.458C65.1785 271.311 65.572 271.311 65.9436 271.445C66.0573 271.479 66.6289 271.598 66.9087 271.373C67.2552 271.059 67.5612 269.906 67.2552 267.64C67.1885 267.129 67.3547 266.605 67.6815 266.233C68.0148 265.821 68.4936 265.486 68.98 265.682C68.9133 265.66 69.1264 265.633 69.3253 265.352C69.6248 264.941 70.2172 263.64 69.6653 260.073C68.8073 258.591 64.3543 251.311 59.5156 248.479C59.0696 248.219 58.7505 247.737 58.6838 247.178C58.5373 246.024 57.3525 235.814 58.0914 232.374C59.6489 225.192 61.2797 214.849 57.3394 207.906C57.0869 207.457 57.0465 206.899 57.2126 206.401C57.3722 205.919 57.7711 205.527 58.2379 205.36C61.2065 204.332 69.5122 201.074 72.447 198.34C77.3251 193.786 80.0008 190.913 83.0689 185.955C83.5345 185.186 84.4395 184.907 85.2188 185.355C85.9642 185.76 86.2965 186.697 85.9774 187.55C84.7259 190.802 84.1466 200.277 105.79 217.968C106.236 218.331 106.49 218.905 106.436 219.5C106.41 219.779 104.034 247.156 109.425 261.491L106.343 262.764C101.192 249.044 102.662 225.247 103.056 220.128C88.1874 207.835 83.3552 198.87 82.3835 192.849C80.2598 195.535 77.9306 197.884 74.6494 200.955C71.5606 203.843 64.4669 206.737 61.1125 208.01C64.4538 215.842 62.8755 225.995 61.3125 233.156C60.8928 235.148 61.3988 241.708 61.8579 245.91C67.6946 249.763 72.4667 258.204 72.6667 258.588C72.7803 258.763 72.8328 258.959 72.8667 259.176C73.5323 263.169 73.1596 266.056 71.7496 267.742C71.4097 268.141 71.0436 268.435 70.6708 268.665C70.7976 271.197 70.238 273.036 68.981 274.105C67.7558 275.154 66.2857 275.091 65.4605 274.916C62.8241 275.875 60.8611 275.665 59.9233 275.463C59.1254 275.666 58.3789 275.757 57.7405 275.757C56.3491 275.757 55.3108 275.386 54.7118 275.078C52.0164 275.316 50.1999 274.316 49.1943 273.302C47.7898 273.176 46.558 272.609 45.5939 271.644C43.7172 269.722 43.3445 266.82 43.2647 265.631C40.9224 261.045 41.2754 253.995 41.2951 253.688C41.2951 253.534 41.3279 253.394 41.3749 253.24C42.2264 250.491 44.2233 244.059 43.0385 241.743C39.2588 234.226 34.5064 212.681 34.3064 211.772C31.9575 195.431 39.0249 184.766 43.691 177.696L44.3697 176.704C50.3922 167.567 60.5026 161.428 63.3116 159.854C67.0114 141.974 82.0797 137.306 90.1002 137.306C90.5461 137.306 91.0052 137.319 91.4511 137.319C103.77 137.319 118.007 130.393 121.667 128.519C121.534 118.313 119.817 112.778 119.81 112.723C116.463 107.157 115.245 102.509 116.389 99.2969C116.816 98.1233 117.454 97.3573 118.04 96.8784C115.45 74.5994 132.149 70.3756 132.322 70.3262C132.561 70.2814 136.595 69.481 139.597 69.7956C142.478 69.4672 146.498 70.2676 146.671 70.3205C146.912 70.3767 163.624 74.6006 161.021 96.8795C161.606 97.3515 162.266 98.1244 162.659 99.2923C163.803 102.499 162.605 107.145 159.098 113.075C159.137 113.075 157.514 118.589 157.394 128.523C161.047 130.404 175.296 137.323 187.61 137.323C188.056 137.323 188.489 137.309 188.974 137.309C196.98 137.309 212.048 141.963 215.735 159.836C218.664 161.375 229.112 167.319 235.13 176.455C239.994 183.853 247.189 194.79 244.765 211.629C244.506 212.636 239.767 234.181 235.973 241.684ZM193.345 177.903C193.345 176.935 192.606 176.155 191.681 176.155C190.763 176.155 190.031 176.935 190.031 177.903C190.031 188.595 180.301 197.301 168.347 197.301C156.407 197.301 146.683 188.595 146.683 177.903V166.977C146.683 166.002 145.944 165.236 145.026 165.236C144.107 165.236 143.363 166.002 143.363 166.977V177.889C143.363 190.518 154.583 200.777 168.347 200.777C182.117 200.777 193.345 190.51 193.345 177.903ZM89.0596 177.903C89.0596 176.935 88.3273 176.155 87.4092 176.155C86.4845 176.155 85.7456 176.935 85.7456 177.903C85.7456 190.525 96.9665 200.783 110.73 200.783C124.506 200.783 135.715 190.511 135.715 177.903V166.977C135.715 166.002 134.989 165.236 134.071 165.236C133.146 165.236 132.414 166.002 132.414 166.977V177.889C132.414 188.582 122.683 197.3 110.73 197.3C98.7907 197.301 89.0596 188.594 89.0596 177.903ZM173.392 187.56C173.392 185.455 171.808 183.742 169.824 183.742C167.882 183.742 166.284 185.455 166.284 187.56C166.284 189.678 167.868 191.363 169.824 191.363C171.788 191.364 173.392 189.678 173.392 187.56ZM112.793 187.56C112.793 185.455 111.216 183.742 109.24 183.742C107.263 183.742 105.692 185.455 105.692 187.56C105.692 189.678 107.269 191.363 109.24 191.363C111.211 191.363 112.793 189.678 112.793 187.56ZM139.495 204.993C126.284 204.993 115.536 216.28 115.536 230.168V260.265C115.536 261.216 116.275 261.992 117.186 261.992C118.104 261.992 118.85 261.216 118.85 260.265V230.168C118.85 218.209 128.094 208.497 139.481 208.497C150.863 208.497 160.113 218.209 160.113 230.168V261.383C160.113 262.349 160.852 263.126 161.777 263.126C162.682 263.126 163.427 262.349 163.427 261.383V230.168C163.449 216.28 152.707 204.993 139.495 204.993ZM146.756 228.678C146.769 228.678 146.783 228.678 146.796 228.678C151.495 228.678 154.862 225.174 154.995 225.027C155.635 224.334 155.635 223.251 154.982 222.559C154.322 221.867 153.277 221.903 152.639 222.573C152.618 222.601 150.082 225.188 146.795 225.188C146.782 225.188 146.781 225.188 146.768 225.188C144.826 225.174 142.942 224.182 141.145 222.378V217.342C141.145 216.378 140.419 215.594 139.501 215.594C138.576 215.594 137.844 216.379 137.844 217.342V222.391C136.046 224.167 134.19 225.159 132.26 225.188C132.247 225.188 132.234 225.188 132.207 225.188C128.905 225.188 126.377 222.594 126.364 222.559C125.712 221.903 124.673 221.895 124.021 222.573C123.368 223.252 123.362 224.335 124.008 225.029C124.154 225.175 127.495 228.679 132.207 228.679C132.22 228.679 132.234 228.679 132.248 228.679C134.217 228.664 136.068 227.854 137.845 226.665V233.021C136.047 234.805 134.191 235.804 132.261 235.833C132.248 235.833 132.222 235.833 132.194 235.833C128.906 235.833 126.371 233.251 126.364 233.218C125.712 232.56 124.673 232.546 124.021 233.232C123.368 233.895 123.362 234.993 124.008 235.679C124.154 235.834 127.495 239.308 132.194 239.308C132.22 239.308 132.235 239.308 132.248 239.308C134.217 239.301 136.068 238.497 137.845 237.308V245.084C136.047 246.86 134.191 247.874 132.261 247.882C132.248 247.882 132.222 247.882 132.194 247.882C128.906 247.882 126.371 245.315 126.364 245.267C125.712 244.61 124.673 244.602 124.021 245.281C123.368 245.959 123.362 247.042 124.008 247.736C124.154 247.883 127.495 251.387 132.194 251.387C132.22 251.387 132.235 251.387 132.248 251.387C134.217 251.372 136.068 250.547 137.845 249.357V252.176C137.845 253.141 138.576 253.911 139.502 253.911C140.421 253.911 141.152 253.141 141.152 252.176V249.344C142.949 250.546 144.787 251.372 146.756 251.385C146.769 251.385 146.796 251.385 146.81 251.385C151.509 251.385 154.862 247.889 154.995 247.735C155.641 247.041 155.635 245.958 154.982 245.267C154.322 244.588 153.277 244.602 152.639 245.281C152.618 245.315 150.082 247.883 146.809 247.883C146.795 247.883 146.783 247.883 146.768 247.883C144.826 247.883 142.942 246.876 141.151 245.072V237.296C142.948 238.484 144.786 239.303 146.755 239.317C146.768 239.317 146.795 239.317 146.809 239.317C151.501 239.317 154.861 235.843 154.994 235.681C155.64 234.995 155.634 233.898 154.981 233.234C154.329 232.548 153.29 232.562 152.638 233.22C152.617 233.253 150.096 235.835 146.808 235.835C146.782 235.835 146.754 235.835 146.754 235.835C144.811 235.806 142.941 234.806 141.15 233.016V226.652C142.93 227.837 144.774 228.663 146.756 228.678ZM139.509 259.698C137.811 259.698 136.447 261.124 136.447 262.894C136.447 264.684 137.812 266.11 139.509 266.11C141.186 266.11 142.531 264.684 142.531 262.894C142.531 261.145 141.186 259.698 139.509 259.698ZM79.4488 167.847C56.2879 169.881 54.0451 191.406 54.0385 191.616C53.9456 192.58 54.6178 193.419 55.5228 193.524C55.5753 193.524 55.6288 193.524 55.6758 193.524C56.5142 193.524 57.2399 192.846 57.3263 191.966C57.4061 191.189 59.3626 173.099 79.7286 171.309C80.6336 171.221 81.3124 170.397 81.2534 169.424C81.167 168.515 80.4555 167.82 79.6029 167.82C79.5559 167.84 79.5024 167.847 79.4488 167.847ZM221.712 192.517C221.778 193.426 222.496 194.139 223.356 194.139C223.402 194.139 223.428 194.125 223.481 194.125C224.4 194.055 225.065 193.224 225.019 192.266C223.328 167.899 202.843 165.371 202.635 165.344C201.804 165.399 200.926 165.944 200.819 166.896C200.705 167.847 201.385 168.714 202.29 168.815C203.002 168.885 220.207 171.098 221.712 192.517Z" fill="#729900" stroke="#729900" stroke-width="2.25875"/>
</svg>
