<svg width="302" height="342" viewBox="0 0 302 342" fill="none" xmlns="http://www.w3.org/2000/svg">
<path d="M108.516 121.49C108.516 121.49 105.926 120.148 104.243 112.545C102.56 104.942 117.323 90.885 117.323 90.885C117.323 90.885 121.855 88.7126 140.633 89.0321C159.412 89.3516 163.879 92.3545 167.765 96.9549C184.704 117.013 216.523 156.951 224.075 188.443C225.794 193.134 228.171 190.572 228.171 198.149C228.171 203.578 225.159 205.073 224.357 205.958C204.802 227.554 156.886 234.71 135.518 234.71C114.149 234.71 114.279 229.854 108.322 229.854C102.366 229.854 95.7603 249.278 81.0293 252.089C70.054 230.365 70.507 186.406 81.0293 163.181C105.797 163.181 109.747 172.573 119.977 172.573C128.719 172.573 127.359 167.206 141.151 167.206C154.944 167.206 173.98 182.732 173.98 182.732C163.199 169.506 175.218 137.281 151.933 115.836C147.562 111.81 145.522 125.036 131.924 125.036C129.919 126.204 122.704 127.139 122.704 127.139" stroke="#729900" stroke-width="4.65927" stroke-linecap="round" stroke-linejoin="round"/>
<path d="M179.743 188.209C183.531 192.474 191.318 198.257 198.554 198.162" stroke="#729900" stroke-width="4.65927" stroke-linecap="round" stroke-linejoin="round"/>
<path d="M101.717 193.69C93.3641 203.594 92.263 214.328 83.8457 218.801" stroke="#729900" stroke-width="4.65927" stroke-linecap="round" stroke-linejoin="round"/>
<path d="M114.604 198.164C127.166 210.75 149.893 209.919 163.167 196.501" stroke="#729900" stroke-width="4.65927" stroke-linecap="round" stroke-linejoin="round"/>
<path d="M163.733 106.73C163.15 109.126 160.042 112.816 157.76 113.439" stroke="#729900" stroke-width="4.65927" stroke-linecap="round" stroke-linejoin="round"/>
<path d="M128.234 97.144C126.534 99.1567 118.278 109.507 118.473 111.185C118.667 112.862 117.453 121.248 120.027 122.159C122.6 123.069 131.342 121.536 131.245 117.894C131.148 114.252 130.419 112.383 130.613 110.61C130.807 108.837 136.635 100.067 136.635 100.067" stroke="#729900" stroke-width="4.65927" stroke-linecap="round" stroke-linejoin="round"/>
<path d="M119.833 95.6128C117.697 98.1524 110.655 107.976 110.752 112.097C110.849 116.219 111.286 119.237 112.257 120.148C113.228 121.059 118.478 118.918 118.478 118.918" stroke="#729900" stroke-width="4.65927" stroke-linecap="round" stroke-linejoin="round"/>
<path d="M120.356 122.251C120.356 122.251 122.455 124.509 122.698 126.953C122.941 129.397 119.493 131.745 116.336 132.608C113.179 133.47 108.76 127.624 108.76 125.42C108.76 123.215 112.256 120.148 112.256 120.148" stroke="#729900" stroke-width="4.65927" stroke-linecap="round" stroke-linejoin="round"/>
<path d="M140.305 110.616C140.414 113.719 141.182 117.074 138.476 118.048C135.77 119.022 131.079 118.787 131.079 118.787" stroke="#729900" stroke-width="4.65927" stroke-linecap="round" stroke-linejoin="round"/>
</svg>
