<svg width="302" height="342" viewBox="0 0 302 342" fill="none" xmlns="http://www.w3.org/2000/svg">
<rect width="302" height="342" fill="white"/>
<path d="M187.088 189.146C180.659 175.738 174.586 163.074 174.586 148.13C174.586 130.821 178.024 123.59 181.057 117.211C183.533 112.003 185.872 107.084 185.872 98.3142C185.872 96.7351 184.609 95.4551 183.05 95.4551L84.3013 95.4551C82.7431 95.4551 81.48 96.7351 81.48 98.3142C81.48 107.083 83.8188 112.003 86.2948 117.211C89.328 123.59 92.7657 130.821 92.7657 148.13C92.7657 163.074 86.6931 175.738 80.2634 189.146C73.6484 202.94 66.8086 217.203 66.8086 234.417C66.8086 268.069 86.0829 286.456 86.9035 287.222C87.4246 287.709 88.1068 287.979 88.8158 287.979L178.536 287.979C179.244 287.979 179.927 287.709 180.448 287.222C181.269 286.456 200.543 268.069 200.543 234.417C200.543 217.204 193.702 202.94 187.088 189.146ZM85.3379 191.645C91.7639 178.246 98.4082 164.39 98.4082 148.13C98.4082 129.516 94.5102 121.317 91.3779 114.729C89.3235 110.407 87.6421 106.87 87.2231 101.173L180.128 101.173C179.709 106.87 178.027 110.407 175.973 114.729C172.841 121.316 168.943 129.516 168.943 148.13C168.943 164.39 175.587 178.246 182.013 191.645C182.473 192.605 182.934 193.568 183.394 194.534L83.9561 194.534C84.4163 193.568 84.8773 192.606 85.3379 191.645ZM131.418 282.261L89.9853 282.261C86.5583 278.618 72.4514 261.942 72.4514 234.417C72.4514 222.318 76.2466 211.515 80.8528 201.219L120.107 241C123.285 244.221 127.276 246.127 131.418 246.721L131.418 282.261ZM124.097 236.957L87.8789 200.253L180.599 200.253L144.382 236.957C138.789 242.624 129.689 242.624 124.097 236.957ZM177.365 282.261L137.06 282.261L137.06 246.721C141.201 246.127 145.193 244.221 148.372 241L186.848 202.006C191.295 212.066 194.899 222.626 194.899 234.417C194.9 250.621 189.945 262.954 185.789 270.446C182.34 276.665 178.849 280.683 177.365 282.261Z" fill="#729900"/>
<path d="M80.4956 159.929L64.4137 143.63C63.6072 142.813 62.3931 142.568 61.339 143.011C60.2845 143.453 59.5971 144.496 59.5971 145.652L59.5971 155.374L42.1044 155.374C40.5463 155.374 39.2832 156.654 39.2832 158.233L39.2832 167.001C39.2832 168.58 40.5463 169.86 42.1044 169.86L60.6943 169.86L60.6943 177.135C60.6943 178.292 61.3817 179.334 62.4362 179.777C62.7854 179.923 63.1518 179.995 63.5155 179.995C64.2497 179.995 64.9712 179.705 65.5113 179.157L80.496 163.971C81.5972 162.855 81.5972 161.045 80.4956 159.929ZM66.3375 170.233L66.3375 167.001C66.3375 165.422 65.0744 164.142 63.5162 164.142L44.926 164.142L44.926 161.092L62.4187 161.092C63.9769 161.092 65.2403 159.812 65.2403 158.233L65.2403 152.556L74.5109 161.951L66.3375 170.233Z" fill="#729900"/>
<path d="M226.498 152.865L207.908 152.865L207.908 145.59C207.908 144.433 207.221 143.391 206.167 142.948C205.112 142.505 203.899 142.75 203.091 143.568L188.107 158.754C187.005 159.87 187.005 161.681 188.107 162.797L204.189 179.095C204.729 179.642 205.45 179.932 206.185 179.932C206.548 179.932 206.914 179.861 207.264 179.715C208.318 179.272 209.006 178.229 209.006 177.073L209.006 167.351L226.498 167.351C228.057 167.351 229.32 166.071 229.32 164.492L229.32 155.723C229.32 154.145 228.057 152.865 226.498 152.865ZM206.184 161.633C204.626 161.633 203.363 162.913 203.363 164.492L203.363 170.17L194.092 160.775L202.266 152.492L202.266 155.724C202.266 157.303 203.528 158.583 205.087 158.583L223.677 158.583L223.677 161.633L206.184 161.633Z" fill="#729900"/>
<path d="M134.334 161.225C132.776 161.225 131.513 162.505 131.513 164.084L131.513 170.131C131.513 171.711 132.776 172.99 134.334 172.99C135.893 172.99 137.156 171.71 137.156 170.131L137.156 164.084C137.155 162.505 135.892 161.225 134.334 161.225Z" fill="#729900"/>
</svg>
