<svg width="302" height="342" viewBox="0 0 302 342" fill="none" xmlns="http://www.w3.org/2000/svg">
<path d="M100.453 234.7L102.952 237.128L105.565 234.822C120.287 221.834 138.904 214.336 158.797 213.407L162.385 213.239V209.647V170.383H163.615V209.647V213.239L167.203 213.407C187.097 214.336 205.724 221.834 220.421 234.82L223.034 237.129L225.535 234.7L288.622 173.43L291.469 170.665L288.557 167.969C275.581 155.955 261.088 146.014 245.514 138.306L242.391 136.759L240.61 139.755L232.342 153.66L231.331 153.093L239.161 139.928L241.344 136.259L237.43 134.554C215.633 125.059 191.958 119.816 167.478 119.249L163.627 119.16V123.012V138.565H162.397V123V119.148L158.547 119.237C134.055 119.804 110.368 125.047 88.5703 134.542L84.6567 136.247L86.8383 139.916L94.6923 153.125L93.672 153.697L85.3786 139.744L83.5977 136.747L80.4737 138.294C64.899 146.003 50.4057 155.956 37.4418 167.97L34.5322 170.666L37.3776 173.43L100.453 234.7Z" stroke="#729900" stroke-width="7.52733"/>
</svg>
