<svg width="15" height="24" viewBox="0 0 15 24" fill="none" xmlns="http://www.w3.org/2000/svg">
<path d="M8.33325 9.33333H14.3333L13.6666 12H8.33325V24H5.66659V12H0.333252V9.33333H5.66659V6.83733C5.66659 4.46 5.91459 3.59733 6.37859 2.728C6.83327 1.86908 7.53566 1.16668 8.39458 0.712C9.26392 0.248 10.1266 0 12.5039 0C13.1999 0 13.8106 0.0666668 14.3333 0.2V2.66667H12.5039C10.7386 2.66667 10.2013 2.77067 9.65325 3.064C9.24792 3.28 8.94659 3.58133 8.73059 3.98667C8.43725 4.53467 8.33325 5.072 8.33325 6.83733V9.33333Z" fill="#7F7F7F"/>
</svg>
