<svg width="26" height="26" viewBox="0 0 26 26" fill="none" xmlns="http://www.w3.org/2000/svg">
<path d="M19.6667 1H6.33333C4.91885 1 3.56229 1.5619 2.5621 2.5621C1.5619 3.56229 1 4.91885 1 6.33333V19.6667C1 21.0812 1.5619 22.4377 2.5621 23.4379C3.56229 24.4381 4.91885 25 6.33333 25H19.6667C21.0812 25 22.4377 24.4381 23.4379 23.4379C24.4381 22.4377 25 21.0812 25 19.6667V6.33333C25 4.91885 24.4381 3.56229 23.4379 2.5621C22.4377 1.5619 21.0812 1 19.6667 1Z" stroke="#7F7F7F" stroke-width="1.5" stroke-linejoin="round"/>
<path d="M13.0001 18.3332C14.4146 18.3332 15.7711 17.7713 16.7713 16.7711C17.7715 15.7709 18.3334 14.4143 18.3334 12.9998C18.3334 11.5853 17.7715 10.2288 16.7713 9.2286C15.7711 8.22841 14.4146 7.6665 13.0001 7.6665C11.5856 7.6665 10.229 8.22841 9.22885 9.2286C8.22865 10.2288 7.66675 11.5853 7.66675 12.9998C7.66675 14.4143 8.22865 15.7709 9.22885 16.7711C10.229 17.7713 11.5856 18.3332 13.0001 18.3332V18.3332Z" stroke="#7F7F7F" stroke-width="1.5" stroke-linejoin="round"/>
<path d="M20.3333 7.00016C20.687 7.00016 21.0261 6.85969 21.2761 6.60964C21.5262 6.35959 21.6667 6.02045 21.6667 5.66683C21.6667 5.31321 21.5262 4.97407 21.2761 4.72402C21.0261 4.47397 20.687 4.3335 20.3333 4.3335C19.9797 4.3335 19.6406 4.47397 19.3905 4.72402C19.1405 4.97407 19 5.31321 19 5.66683C19 6.02045 19.1405 6.35959 19.3905 6.60964C19.6406 6.85969 19.9797 7.00016 20.3333 7.00016Z" fill="#7F7F7F"/>
</svg>
