<svg width="32" height="32" viewBox="0 0 32 32" fill="none" xmlns="http://www.w3.org/2000/svg">
<path d="M7 2.2502V29.7502C7 31.4502 10 31.4502 10 29.7502V2.2502C10 0.600195 7 0.600195 7 2.2502Z" fill="#333333"/>
<path d="M3.3 21H13.7C14.95 21 16 19.85 16 18.5C16 17.15 14.95 16 13.7 16H3.3C2.05 16 1 17.15 1 18.5C1 19.85 2.05 21 3.3 21Z" fill="#6D7275"/>
<path d="M3.44922 19.8H13.5492C14.7492 19.8 15.7992 18.95 15.7992 17.9C15.7992 16.85 14.7992 16 13.5492 16H3.44922C2.24922 16 1.19922 16.85 1.19922 17.9C1.19922 18.95 2.19922 19.8 3.44922 19.8Z" fill="#94989B"/>
<path d="M29.5 5H19.5C17.5 5 17.5 2 19.5 2H29.5C31.5 2 31.5 5 29.5 5Z" fill="#5B636B"/>
<path d="M28.5 10H19.5C17.5 10 17.5 7 19.5 7H28.5C30.5 7 30.5 10 28.5 10Z" fill="#5B636B"/>
<path d="M27.5 15H19.5C17.5 15 17.5 12 19.5 12H27.5C29.5 12 29.5 15 27.5 15Z" fill="#5B636B"/>
<path d="M26.5 20H19.5C17.5 20 17.5 17 19.5 17H26.5C28.5 17 28.5 20 26.5 20Z" fill="#C7E755"/>
<path d="M25.5 25H19.5C17.5 25 17.5 22 19.5 22H25.5C27.5 22 27.5 25 25.5 25Z" fill="#C7E755"/>
<path d="M24.5 30H19.5C17.5 30 17.5 27 19.5 27H24.5C26.5 27 26.5 30 24.5 30Z" fill="#C7E755"/>
</svg>
