<svg width="24" height="24" viewBox="0 0 24 24" fill="none" xmlns="http://www.w3.org/2000/svg">
<path d="M11.3333 8.06667C12.556 6.81733 14.148 6 16 6C17.9449 6 19.8102 6.77262 21.1855 8.14788C22.5607 9.52315 23.3333 11.3884 23.3333 13.3333V23.3333H20.6667V13.3333C20.6667 12.0957 20.175 10.9087 19.2998 10.0335C18.4247 9.15833 17.2377 8.66667 16 8.66667C14.7623 8.66667 13.5753 9.15833 12.7002 10.0335C11.825 10.9087 11.3333 12.0957 11.3333 13.3333V23.3333H8.66667V6.66667H11.3333V8.06667ZM2 4C1.46957 4 0.960859 3.78929 0.585787 3.41421C0.210714 3.03914 0 2.53043 0 2C0 1.46957 0.210714 0.960859 0.585787 0.585787C0.960859 0.210714 1.46957 0 2 0C2.53043 0 3.03914 0.210714 3.41421 0.585787C3.78929 0.960859 4 1.46957 4 2C4 2.53043 3.78929 3.03914 3.41421 3.41421C3.03914 3.78929 2.53043 4 2 4ZM0.666667 6.66667H3.33333V23.3333H0.666667V6.66667Z" fill="#7F7F7F"/>
</svg>
