<svg width="195" height="56" viewBox="0 0 195 56" fill="none" xmlns="http://www.w3.org/2000/svg">
<path d="M19.3873 28.0203C18.2998 26.9289 16.5403 26.9289 15.4576 28.0203L5.55856 37.9549V28.7431C5.55856 20.9332 11.8905 14.5785 19.6725 14.5785H35.5941C37.1312 14.5785 38.3734 13.3318 38.3734 11.7893C38.3734 10.2467 37.1312 9 35.5941 9H19.6725C8.82603 8.99515 0 17.8529 0 28.7431V44.6879C0 45.8182 0.676694 46.832 1.7159 47.2638C2.05908 47.4044 2.4216 47.4772 2.77928 47.4772C3.50431 47.4772 4.21484 47.1959 4.74653 46.6623L19.3921 31.9641C20.4797 30.8726 20.4797 29.1069 19.3921 28.0203H19.3873Z" fill="#729900"/>
<path d="M34.6564 32.3381C33.2643 31.6881 31.6113 32.2944 30.9636 33.6915C30.5624 34.5598 30.0694 35.3941 29.4942 36.1654C26.7971 39.8084 22.6644 41.8992 18.1499 41.8992C16.6128 41.8992 15.3706 43.1458 15.3706 44.6884C15.3706 46.231 16.6128 47.4777 18.1499 47.4777C24.3513 47.4777 30.2579 44.4895 33.9555 39.4931C34.7531 38.4162 35.4394 37.2569 36.0001 36.0442C36.6478 34.6471 36.0436 32.9881 34.6516 32.3381H34.6564Z" fill="#7F7F7F"/>
<path d="M32.317 24.3097V27.4967H35.4926C37.3584 27.4967 38.8713 25.9784 38.8713 24.106V20.9189H35.6957C33.8299 20.9189 32.317 22.4373 32.317 24.3097Z" fill="#729900"/>
<path d="M73.0685 20.4922C66.432 20.4922 61.033 25.9106 61.033 32.5709V44.6884C61.033 46.231 62.2752 47.4776 63.8122 47.4776C65.3493 47.4776 66.5915 46.231 66.5915 44.6884V32.5709C66.5915 28.9861 69.4965 26.0707 73.0685 26.0707C76.6404 26.0707 79.5454 28.9861 79.5454 32.5709V44.6884C79.5454 46.231 80.7876 47.4776 82.3247 47.4776C83.8617 47.4776 85.104 46.231 85.104 44.6884V32.5709C85.104 25.9106 79.7049 20.4922 73.0685 20.4922Z" fill="#7F7F7F"/>
<path d="M112.607 20.4922C111.07 20.4922 109.827 21.7389 109.827 23.2814V35.3989C109.827 38.9838 106.922 41.8991 103.35 41.8991C99.7785 41.8991 96.8735 38.9838 96.8735 35.3989V23.2814C96.8735 21.7389 95.6313 20.4922 94.0942 20.4922C92.5572 20.4922 91.3149 21.7389 91.3149 23.2814V35.3989C91.3149 42.0592 96.714 47.4776 103.35 47.4776C109.987 47.4776 115.386 42.0592 115.386 35.3989V23.2814C115.386 21.7389 114.144 20.4922 112.607 20.4922Z" fill="#7F7F7F"/>
<path d="M54.0194 26.9824C55.5564 26.9824 56.7986 25.7358 56.7986 24.1932C56.7986 22.6506 55.5564 21.4039 54.0194 21.4039H49.9592V18.7941C49.9592 17.2516 48.717 16.0049 47.1799 16.0049C45.6429 16.0049 44.4006 17.2516 44.4006 18.7941V39.7403C44.4006 43.9023 47.7744 47.2882 51.9216 47.2882H54.0194C55.5564 47.2882 56.7986 46.0415 56.7986 44.499C56.7986 42.9564 55.5564 41.7097 54.0194 41.7097H51.9216C50.8389 41.7097 49.9592 40.8268 49.9592 39.7403V26.9824H54.0194Z" fill="#7F7F7F"/>
<path d="M131.221 41.4529H129.123C128.04 41.4529 127.16 40.57 127.16 39.4834V26.7256H131.221C132.758 26.7256 134 25.4789 134 23.9363C134 22.3938 132.758 21.1471 131.221 21.1471H127.16V18.5373C127.16 16.9947 125.918 15.748 124.381 15.748C122.844 15.748 121.602 16.9947 121.602 18.5373V39.4834C121.602 43.6455 124.976 47.0314 129.123 47.0314H131.221C132.758 47.0314 134 45.7847 134 44.2421C134 42.6996 132.758 41.4529 131.221 41.4529Z" fill="#7F7F7F"/>
</svg>
