<svg width="28" height="23" viewBox="0 0 28 23" fill="none" xmlns="http://www.w3.org/2000/svg">
<path d="M15.2399 6.79605L15.2399 6.7961L15.2025 8.89594C15.2006 8.9946 15.1779 9.09174 15.1358 9.18098C15.0937 9.27023 15.0332 9.34957 14.9583 9.4138C14.8834 9.47803 14.7957 9.52569 14.7011 9.55366C14.6065 9.58163 14.507 9.58928 14.4092 9.57611L12.328 9.29346C9.61168 8.92317 7.00464 7.67171 4.49851 5.58372L4.36662 5.47383L4.3361 5.64277C3.9346 7.86511 4.12464 9.7547 4.89387 11.3883C5.66277 13.0212 7.00561 14.3883 8.89194 15.5745L8.89196 15.5745L11.2213 17.0385L11.2745 16.9539L11.2213 17.0385C11.3181 17.0994 11.3986 17.1831 11.4556 17.2822C11.5126 17.3814 11.5445 17.493 11.5484 17.6073C11.5523 17.7216 11.5282 17.8351 11.4781 17.9379C11.428 18.0407 11.3534 18.1297 11.261 18.197L11.2608 18.1971L9.13818 19.7478L8.91459 19.9111L9.19095 19.9283C10.4597 20.0074 11.6674 19.9514 12.6726 19.752L12.6728 19.7519C15.8381 19.1199 18.4786 17.6116 20.3273 15.2742C22.1758 12.937 23.2265 9.7786 23.2265 5.85654C23.2265 5.6711 23.1319 5.39464 22.9627 5.09275C22.7913 4.78674 22.5363 4.44201 22.1999 4.11816C21.5265 3.47005 20.5227 2.90188 19.2065 2.90188C18.1669 2.9017 17.1688 3.30965 16.427 4.03794C15.6851 4.76623 15.2589 5.75664 15.2399 6.79605ZM25.3256 2.35172C25.8465 2.27773 26.4565 2.08395 27.2686 1.61605C26.8515 3.64604 26.6181 4.5557 25.7124 5.79762L25.6932 5.82395V5.85654C25.6932 10.9295 24.1348 14.6912 21.7926 17.3418C19.4493 19.9937 16.3158 21.54 13.1563 22.1705C10.9945 22.6018 8.33524 22.4638 5.98835 21.9803C4.81559 21.7386 3.72362 21.4113 2.81332 21.0274C2.00096 20.6848 1.3393 20.2997 0.893207 19.8948C1.4517 19.8427 2.49181 19.717 3.6505 19.4474C4.98222 19.1376 6.48123 18.6352 7.58423 17.8279L7.70035 17.7429L7.58021 17.6637C7.52447 17.627 7.4638 17.5875 7.39868 17.545C6.38742 16.8862 4.30336 15.5285 2.94597 13.0382C1.51699 10.4165 0.88551 6.52295 3.20761 0.83852C5.43722 3.41497 7.70332 5.18022 10.0059 6.12506L10.0059 6.12506C10.7805 6.44279 11.2666 6.59991 11.6499 6.68958C11.9401 6.75747 12.1715 6.78651 12.4186 6.81753C12.497 6.82737 12.577 6.83741 12.6609 6.84895L12.9558 6.88948L12.7741 6.70798C12.8049 5.4573 13.1999 4.24242 13.9109 3.21231C14.6299 2.17057 15.6403 1.36411 16.8155 0.893878C17.9908 0.42365 19.2786 0.310562 20.5178 0.568772C21.7569 0.826982 22.8924 1.44501 23.782 2.34549L23.8117 2.37551L23.8539 2.37521C23.9934 2.37423 24.1331 2.37897 24.2757 2.38382C24.6008 2.39486 24.9406 2.4064 25.3256 2.35172Z" fill="#7F7F7F" stroke="#7F7F7F" stroke-width="0.2"/>
</svg>
