<svg width="18" height="25" viewBox="0 0 18 25" fill="none" xmlns="http://www.w3.org/2000/svg">
<path d="M12 1.25C12 2.64844 12.2578 3.9375 12.7734 5.11719C13.2891 6.29688 14.0312 7.38281 15 8.375C15.9688 9.36719 16.7109 10.4531 17.2266 11.6328C17.7422 12.8125 18 14.1016 18 15.5C18 16.3281 17.8945 17.125 17.6836 17.8906C17.4727 18.6562 17.168 19.3711 16.7695 20.0352C16.3711 20.6992 15.9023 21.3086 15.3633 21.8633C14.8242 22.418 14.2188 22.8867 13.5469 23.2695C12.875 23.6523 12.1562 23.9531 11.3906 24.1719C10.625 24.3906 9.82812 24.5 9 24.5C8.17188 24.5 7.375 24.3945 6.60938 24.1836C5.84375 23.9727 5.12891 23.668 4.46484 23.2695C3.80078 22.8711 3.19141 22.4023 2.63672 21.8633C2.08203 21.3242 1.61328 20.7188 1.23047 20.0469C0.847656 19.375 0.546875 18.6562 0.328125 17.8906C0.109375 17.125 0 16.3281 0 15.5C0 14.8438 0.0703125 14.1992 0.210938 13.5664C0.351562 12.9336 0.554688 12.3281 0.820312 11.75C1.08594 11.1719 1.41406 10.6211 1.80469 10.0977C2.19531 9.57422 2.63672 9.10156 3.12891 8.67969C3.18359 8.97656 3.25781 9.28125 3.35156 9.59375C3.44531 9.90625 3.55469 10.2188 3.67969 10.5312C3.80469 10.8438 3.95312 11.1406 4.125 11.4219C4.29688 11.7031 4.47656 11.9648 4.66406 12.207C4.82031 12.4023 5.02344 12.5 5.27344 12.5C5.48438 12.5 5.66016 12.4258 5.80078 12.2773C5.94141 12.1289 6.01562 11.9492 6.02344 11.7383C6.02344 11.6523 6.01172 11.5742 5.98828 11.5039C5.96484 11.4336 5.92578 11.3633 5.87109 11.293C5.65234 10.9727 5.46094 10.6562 5.29688 10.3438C5.13281 10.0312 4.98828 9.71094 4.86328 9.38281C4.73828 9.05469 4.64844 8.71484 4.59375 8.36328C4.53906 8.01172 4.50781 7.64062 4.5 7.25C4.5 6.32031 4.67578 5.44531 5.02734 4.625C5.37891 3.80469 5.86328 3.08984 6.48047 2.48047C7.09766 1.87109 7.8125 1.39062 8.625 1.03906C9.4375 0.6875 10.3125 0.507812 11.25 0.5H12V1.25ZM9 23C10.0391 23 11.0117 22.8047 11.918 22.4141C12.8242 22.0234 13.6211 21.4883 14.3086 20.8086C14.9961 20.1289 15.5312 19.3359 15.9141 18.4297C16.2969 17.5234 16.4922 16.5469 16.5 15.5C16.5 14.3203 16.2812 13.2227 15.8438 12.207C15.4062 11.1914 14.7734 10.2695 13.9453 9.44141C12.9297 8.41797 12.1328 7.28906 11.5547 6.05469C10.9766 4.82031 10.6328 3.48438 10.5234 2.04688C9.875 2.13281 9.27734 2.32812 8.73047 2.63281C8.18359 2.9375 7.70312 3.32422 7.28906 3.79297C6.875 4.26172 6.55859 4.78906 6.33984 5.375C6.12109 5.96094 6.00781 6.58594 6 7.25C6 7.85938 6.08984 8.41016 6.26953 8.90234C6.44922 9.39453 6.71484 9.88672 7.06641 10.3789C7.21484 10.582 7.32812 10.793 7.40625 11.0117C7.48438 11.2305 7.52734 11.4727 7.53516 11.7383C7.53516 12.0508 7.47656 12.3438 7.35938 12.6172C7.24219 12.8906 7.07812 13.1289 6.86719 13.332C6.65625 13.5352 6.41797 13.6992 6.15234 13.8242C5.88672 13.9492 5.59375 14.0078 5.27344 14C4.91406 14 4.59766 13.9336 4.32422 13.8008C4.05078 13.668 3.80859 13.4883 3.59766 13.2617C3.38672 13.0352 3.19922 12.7812 3.03516 12.5C2.87109 12.2188 2.71484 11.9375 2.56641 11.6562C2.20703 12.2266 1.94141 12.8398 1.76953 13.4961C1.59766 14.1523 1.50781 14.8203 1.5 15.5C1.5 16.5391 1.69531 17.5117 2.08594 18.418C2.47656 19.3242 3.01172 20.1211 3.69141 20.8086C4.37109 21.4961 5.16406 22.0312 6.07031 22.4141C6.97656 22.7969 7.95312 22.9922 9 23Z" fill="#729900"/>
</svg>
